<svg width="320" height="28" viewBox="0 0 320 28" fill="none" xmlns="http://www.w3.org/2000/svg">
<path d="M3.2998 23.9C4.4998 22.1 6.8998 17.3 12.2998 14M4.4998 13.1C0.299771 18.2 10.1998 25.5875 15.5998 21.2C20.3998 17.3 20.3998 11.6 18.8998 5.59998C14.0998 9.19998 8.69984 7.99998 4.4998 13.1Z" stroke="#704A24" stroke-width="1.5" stroke-linecap="round"/>
<path d="M30.444 19.5L27.07 9.42H28.365L31.298 18.177L34.259 9.42H35.554L32.18 19.5H30.444ZM39.049 19.71C38.307 19.71 37.6583 19.5467 37.103 19.22C36.5523 18.8887 36.123 18.429 35.815 17.841C35.507 17.2483 35.353 16.5577 35.353 15.769C35.353 14.943 35.5046 14.229 35.808 13.627C36.1113 13.0203 36.5336 12.5537 37.075 12.227C37.621 11.8957 38.2603 11.73 38.993 11.73C39.7536 11.73 40.4 11.905 40.932 12.255C41.4686 12.605 41.87 13.1043 42.136 13.753C42.4066 14.4017 42.5233 15.174 42.486 16.07H41.226V15.622C41.212 14.6933 41.023 14.0003 40.659 13.543C40.295 13.081 39.7536 12.85 39.035 12.85C38.265 12.85 37.6793 13.0973 37.278 13.592C36.8766 14.0867 36.676 14.796 36.676 15.72C36.676 16.6113 36.8766 17.302 37.278 17.792C37.6793 18.282 38.251 18.527 38.993 18.527C39.4923 18.527 39.9263 18.4127 40.295 18.184C40.6636 17.9553 40.953 17.6263 41.163 17.197L42.36 17.61C42.066 18.2773 41.6226 18.7953 41.03 19.164C40.442 19.528 39.7816 19.71 39.049 19.71ZM36.256 16.07V15.069H41.842V16.07H36.256ZM47.1035 23.07C46.7068 23.07 46.3195 23.0093 45.9415 22.888C45.5635 22.7667 45.2158 22.5823 44.8985 22.335C44.5858 22.0923 44.3245 21.7843 44.1145 21.411L45.2555 20.809C45.4421 21.1777 45.7058 21.446 46.0465 21.614C46.3918 21.782 46.7465 21.866 47.1105 21.866C47.5911 21.866 47.9901 21.7773 48.3075 21.6C48.6248 21.4273 48.8581 21.1683 49.0075 20.823C49.1615 20.4777 49.2361 20.0483 49.2315 19.535V17.47H49.3785V11.94H50.4845V19.549C50.4845 19.7543 50.4775 19.9527 50.4635 20.144C50.4541 20.3353 50.4308 20.5243 50.3935 20.711C50.2955 21.2477 50.1018 21.6887 49.8125 22.034C49.5231 22.384 49.1498 22.643 48.6925 22.811C48.2351 22.9837 47.7055 23.07 47.1035 23.07ZM47.0125 19.71C46.3078 19.71 45.7035 19.535 45.1995 19.185C44.6955 18.8303 44.3058 18.352 44.0305 17.75C43.7598 17.148 43.6245 16.469 43.6245 15.713C43.6245 14.957 43.7598 14.278 44.0305 13.676C44.3058 13.074 44.6955 12.6003 45.1995 12.255C45.7035 11.905 46.3055 11.73 47.0055 11.73C47.7195 11.73 48.3191 11.9027 48.8045 12.248C49.2898 12.5933 49.6561 13.067 49.9035 13.669C50.1555 14.271 50.2815 14.9523 50.2815 15.713C50.2815 16.4643 50.1555 17.1433 49.9035 17.75C49.6561 18.352 49.2898 18.8303 48.8045 19.185C48.3191 19.535 47.7218 19.71 47.0125 19.71ZM47.1665 18.569C47.6751 18.569 48.0928 18.4477 48.4195 18.205C48.7461 17.9577 48.9865 17.6193 49.1405 17.19C49.2991 16.756 49.3785 16.2637 49.3785 15.713C49.3785 15.153 49.2991 14.6607 49.1405 14.236C48.9865 13.8067 48.7485 13.473 48.4265 13.235C48.1045 12.9923 47.6961 12.871 47.2015 12.871C46.6881 12.871 46.2635 12.997 45.9275 13.249C45.5961 13.501 45.3488 13.8417 45.1855 14.271C45.0268 14.7003 44.9475 15.181 44.9475 15.713C44.9475 16.2497 45.0291 16.735 45.1925 17.169C45.3558 17.5983 45.6008 17.939 45.9275 18.191C46.2588 18.443 46.6718 18.569 47.1665 18.569ZM55.715 19.71C54.973 19.71 54.3243 19.5467 53.769 19.22C53.2183 18.8887 52.789 18.429 52.481 17.841C52.173 17.2483 52.019 16.5577 52.019 15.769C52.019 14.943 52.1707 14.229 52.474 13.627C52.7773 13.0203 53.1997 12.5537 53.741 12.227C54.287 11.8957 54.9263 11.73 55.659 11.73C56.4197 11.73 57.066 11.905 57.598 12.255C58.1347 12.605 58.536 13.1043 58.802 13.753C59.0727 14.4017 59.1893 15.174 59.152 16.07H57.892V15.622C57.878 14.6933 57.689 14.0003 57.325 13.543C56.961 13.081 56.4197 12.85 55.701 12.85C54.931 12.85 54.3453 13.0973 53.944 13.592C53.5427 14.0867 53.342 14.796 53.342 15.72C53.342 16.6113 53.5427 17.302 53.944 17.792C54.3453 18.282 54.917 18.527 55.659 18.527C56.1583 18.527 56.5923 18.4127 56.961 18.184C57.3297 17.9553 57.619 17.6263 57.829 17.197L59.026 17.61C58.732 18.2773 58.2887 18.7953 57.696 19.164C57.108 19.528 56.4477 19.71 55.715 19.71ZM52.922 16.07V15.069H58.508V16.07H52.922ZM64.9315 19.5C64.4835 19.5887 64.0401 19.6237 63.6015 19.605C63.1675 19.591 62.7801 19.5047 62.4395 19.346C62.0988 19.1827 61.8398 18.9307 61.6625 18.59C61.5131 18.2913 61.4315 17.9903 61.4175 17.687C61.4081 17.379 61.4035 17.0313 61.4035 16.644V9.84H62.6495V16.588C62.6495 16.896 62.6518 17.1597 62.6565 17.379C62.6658 17.5983 62.7148 17.7873 62.8035 17.946C62.9715 18.2447 63.2375 18.4197 63.6015 18.471C63.9701 18.5223 64.4135 18.5083 64.9315 18.429V19.5ZM59.8705 12.969V11.94H64.9315V12.969H59.8705ZM68.6153 19.71C68.0507 19.71 67.577 19.6073 67.1943 19.402C66.8163 19.192 66.5293 18.9167 66.3333 18.576C66.142 18.2353 66.0463 17.862 66.0463 17.456C66.0463 17.0593 66.121 16.7163 66.2703 16.427C66.4243 16.133 66.639 15.8903 66.9143 15.699C67.1897 15.503 67.5187 15.349 67.9013 15.237C68.2607 15.139 68.662 15.055 69.1053 14.985C69.5533 14.9103 70.006 14.8427 70.4633 14.782C70.9207 14.7213 71.3477 14.663 71.7443 14.607L71.2963 14.866C71.3103 14.194 71.175 13.697 70.8903 13.375C70.6103 13.053 70.125 12.892 69.4343 12.892C68.977 12.892 68.5757 12.997 68.2303 13.207C67.8897 13.4123 67.6493 13.7483 67.5093 14.215L66.3263 13.858C66.5083 13.1953 66.8607 12.675 67.3833 12.297C67.906 11.919 68.5943 11.73 69.4483 11.73C70.1343 11.73 70.7223 11.8537 71.2123 12.101C71.707 12.3437 72.0617 12.7123 72.2763 13.207C72.3837 13.4403 72.4513 13.6947 72.4793 13.97C72.5073 14.2407 72.5213 14.5253 72.5213 14.824V19.5H71.4153V17.687L71.6743 17.855C71.3897 18.4663 70.9907 18.9283 70.4773 19.241C69.9687 19.5537 69.348 19.71 68.6153 19.71ZM68.8043 18.667C69.2523 18.667 69.6397 18.5877 69.9663 18.429C70.2977 18.2657 70.5637 18.0533 70.7643 17.792C70.965 17.526 71.0957 17.2367 71.1563 16.924C71.2263 16.6907 71.2637 16.4317 71.2683 16.147C71.2777 15.8577 71.2823 15.636 71.2823 15.482L71.7163 15.671C71.3103 15.727 70.9113 15.7807 70.5193 15.832C70.1273 15.8833 69.7563 15.9393 69.4063 16C69.0563 16.056 68.7413 16.1237 68.4613 16.203C68.256 16.2683 68.0623 16.3523 67.8803 16.455C67.703 16.5577 67.5583 16.6907 67.4463 16.854C67.339 17.0127 67.2853 17.211 67.2853 17.449C67.2853 17.6543 67.3367 17.8503 67.4393 18.037C67.5467 18.2237 67.71 18.3753 67.9293 18.492C68.1533 18.6087 68.445 18.667 68.8043 18.667ZM74.3413 19.5V11.94H75.4543V13.767L75.2723 13.529C75.361 13.2957 75.4753 13.081 75.6153 12.885C75.76 12.689 75.921 12.528 76.0983 12.402C76.2943 12.2433 76.516 12.122 76.7633 12.038C77.0107 11.954 77.2627 11.905 77.5193 11.891C77.776 11.8723 78.0163 11.8887 78.2403 11.94V13.109C77.979 13.039 77.692 13.0203 77.3793 13.053C77.0667 13.0857 76.7773 13.2 76.5113 13.396C76.2687 13.5687 76.0797 13.7787 75.9443 14.026C75.8137 14.2733 75.7227 14.5417 75.6713 14.831C75.62 15.1157 75.5943 15.4073 75.5943 15.706V19.5H74.3413ZM79.704 10.603V9.315H80.95V10.603H79.704ZM79.704 19.5V11.94H80.95V19.5H79.704ZM85.1993 19.71C84.6346 19.71 84.161 19.6073 83.7783 19.402C83.4003 19.192 83.1133 18.9167 82.9173 18.576C82.726 18.2353 82.6303 17.862 82.6303 17.456C82.6303 17.0593 82.705 16.7163 82.8543 16.427C83.0083 16.133 83.223 15.8903 83.4983 15.699C83.7736 15.503 84.1026 15.349 84.4853 15.237C84.8446 15.139 85.246 15.055 85.6893 14.985C86.1373 14.9103 86.59 14.8427 87.0473 14.782C87.5046 14.7213 87.9316 14.663 88.3283 14.607L87.8803 14.866C87.8943 14.194 87.759 13.697 87.4743 13.375C87.1943 13.053 86.709 12.892 86.0183 12.892C85.561 12.892 85.1596 12.997 84.8143 13.207C84.4736 13.4123 84.2333 13.7483 84.0933 14.215L82.9103 13.858C83.0923 13.1953 83.4446 12.675 83.9673 12.297C84.49 11.919 85.1783 11.73 86.0323 11.73C86.7183 11.73 87.3063 11.8537 87.7963 12.101C88.291 12.3437 88.6456 12.7123 88.8603 13.207C88.9676 13.4403 89.0353 13.6947 89.0633 13.97C89.0913 14.2407 89.1053 14.5253 89.1053 14.824V19.5H87.9993V17.687L88.2583 17.855C87.9736 18.4663 87.5746 18.9283 87.0613 19.241C86.5526 19.5537 85.932 19.71 85.1993 19.71ZM85.3883 18.667C85.8363 18.667 86.2236 18.5877 86.5503 18.429C86.8816 18.2657 87.1476 18.0533 87.3483 17.792C87.549 17.526 87.6796 17.2367 87.7403 16.924C87.8103 16.6907 87.8476 16.4317 87.8523 16.147C87.8616 15.8577 87.8663 15.636 87.8663 15.482L88.3003 15.671C87.8943 15.727 87.4953 15.7807 87.1033 15.832C86.7113 15.8833 86.3403 15.9393 85.9903 16C85.6403 16.056 85.3253 16.1237 85.0453 16.203C84.84 16.2683 84.6463 16.3523 84.4643 16.455C84.287 16.5577 84.1423 16.6907 84.0303 16.854C83.923 17.0127 83.8693 17.211 83.8693 17.449C83.8693 17.6543 83.9206 17.8503 84.0233 18.037C84.1306 18.2237 84.294 18.3753 84.5133 18.492C84.7373 18.6087 85.029 18.667 85.3883 18.667ZM96.3083 19.5V15.713C96.3083 15.3537 96.2756 15.0083 96.2103 14.677C96.1496 14.3457 96.04 14.0493 95.8813 13.788C95.7273 13.522 95.5173 13.312 95.2513 13.158C94.99 13.004 94.6586 12.927 94.2573 12.927C93.9446 12.927 93.66 12.9807 93.4033 13.088C93.1513 13.1907 92.9343 13.3493 92.7523 13.564C92.5703 13.7787 92.428 14.0493 92.3253 14.376C92.2273 14.698 92.1783 15.0783 92.1783 15.517L91.3593 15.265C91.3593 14.5323 91.49 13.9047 91.7513 13.382C92.0173 12.8547 92.3883 12.451 92.8643 12.171C93.345 11.8863 93.9096 11.744 94.5583 11.744C95.0483 11.744 95.466 11.821 95.8113 11.975C96.1566 12.129 96.4436 12.3343 96.6723 12.591C96.901 12.843 97.0806 13.1277 97.2113 13.445C97.342 13.7577 97.433 14.0773 97.4843 14.404C97.5403 14.726 97.5683 15.0317 97.5683 15.321V19.5H96.3083ZM90.9183 19.5V11.94H92.0383V13.963H92.1783V19.5H90.9183Z" fill="#1C140C"/>
<path d="M129.074 21.0594C131.506 23.1307 135.376 24.0719 138.054 21.8957C142.514 18.2718 142.514 12.9753 141.121 7.39998C136.66 10.7452 131.643 9.63009 127.74 14.3691C125.92 16.5786 126.949 19.2502 129.074 21.0594ZM129.074 21.0594C129.074 21.0594 129.074 21.0594 129.074 21.0594ZM129.074 21.0594C130.189 19.3869 130.527 18.8293 134.988 15.2054M128.9 13.1C128.9 13.1 127.441 11.8979 126.5 11M128.9 13.1C130.7 11.6409 131.6 11.3 132.8 10.7C134 10.1 126.67 8.17231 123.232 5.59998C122.158 9.88719 122.158 13.9601 125.596 16.7467C125.949 17.0658 126.5 17 126.5 17C126.5 17 127.1 14.559 128.9 13.1Z" stroke="#704A24" stroke-width="1.5" stroke-linecap="round"/>
<path d="M149.444 19.5L146.07 9.42H147.365L150.298 18.177L153.259 9.42H154.554L151.18 19.5H149.444ZM158.049 19.71C157.307 19.71 156.658 19.5467 156.103 19.22C155.552 18.8887 155.123 18.429 154.815 17.841C154.507 17.2483 154.353 16.5577 154.353 15.769C154.353 14.943 154.505 14.229 154.808 13.627C155.111 13.0203 155.534 12.5537 156.075 12.227C156.621 11.8957 157.26 11.73 157.993 11.73C158.754 11.73 159.4 11.905 159.932 12.255C160.469 12.605 160.87 13.1043 161.136 13.753C161.407 14.4017 161.523 15.174 161.486 16.07H160.226V15.622C160.212 14.6933 160.023 14.0003 159.659 13.543C159.295 13.081 158.754 12.85 158.035 12.85C157.265 12.85 156.679 13.0973 156.278 13.592C155.877 14.0867 155.676 14.796 155.676 15.72C155.676 16.6113 155.877 17.302 156.278 17.792C156.679 18.282 157.251 18.527 157.993 18.527C158.492 18.527 158.926 18.4127 159.295 18.184C159.664 17.9553 159.953 17.6263 160.163 17.197L161.36 17.61C161.066 18.2773 160.623 18.7953 160.03 19.164C159.442 19.528 158.782 19.71 158.049 19.71ZM155.256 16.07V15.069H160.842V16.07H155.256ZM166.103 23.07C165.707 23.07 165.319 23.0093 164.941 22.888C164.563 22.7667 164.216 22.5823 163.898 22.335C163.586 22.0923 163.324 21.7843 163.114 21.411L164.255 20.809C164.442 21.1777 164.706 21.446 165.046 21.614C165.392 21.782 165.746 21.866 166.11 21.866C166.591 21.866 166.99 21.7773 167.307 21.6C167.625 21.4273 167.858 21.1683 168.007 20.823C168.161 20.4777 168.236 20.0483 168.231 19.535V17.47H168.378V11.94H169.484V19.549C169.484 19.7543 169.477 19.9527 169.463 20.144C169.454 20.3353 169.431 20.5243 169.393 20.711C169.295 21.2477 169.102 21.6887 168.812 22.034C168.523 22.384 168.15 22.643 167.692 22.811C167.235 22.9837 166.705 23.07 166.103 23.07ZM166.012 19.71C165.308 19.71 164.703 19.535 164.199 19.185C163.695 18.8303 163.306 18.352 163.03 17.75C162.76 17.148 162.624 16.469 162.624 15.713C162.624 14.957 162.76 14.278 163.03 13.676C163.306 13.074 163.695 12.6003 164.199 12.255C164.703 11.905 165.305 11.73 166.005 11.73C166.719 11.73 167.319 11.9027 167.804 12.248C168.29 12.5933 168.656 13.067 168.903 13.669C169.155 14.271 169.281 14.9523 169.281 15.713C169.281 16.4643 169.155 17.1433 168.903 17.75C168.656 18.352 168.29 18.8303 167.804 19.185C167.319 19.535 166.722 19.71 166.012 19.71ZM166.166 18.569C166.675 18.569 167.093 18.4477 167.419 18.205C167.746 17.9577 167.986 17.6193 168.14 17.19C168.299 16.756 168.378 16.2637 168.378 15.713C168.378 15.153 168.299 14.6607 168.14 14.236C167.986 13.8067 167.748 13.473 167.426 13.235C167.104 12.9923 166.696 12.871 166.201 12.871C165.688 12.871 165.263 12.997 164.927 13.249C164.596 13.501 164.349 13.8417 164.185 14.271C164.027 14.7003 163.947 15.181 163.947 15.713C163.947 16.2497 164.029 16.735 164.192 17.169C164.356 17.5983 164.601 17.939 164.927 18.191C165.259 18.443 165.672 18.569 166.166 18.569ZM173.588 19.71C173.023 19.71 172.55 19.6073 172.167 19.402C171.789 19.192 171.502 18.9167 171.306 18.576C171.115 18.2353 171.019 17.862 171.019 17.456C171.019 17.0593 171.094 16.7163 171.243 16.427C171.397 16.133 171.612 15.8903 171.887 15.699C172.162 15.503 172.491 15.349 172.874 15.237C173.233 15.139 173.635 15.055 174.078 14.985C174.526 14.9103 174.979 14.8427 175.436 14.782C175.893 14.7213 176.32 14.663 176.717 14.607L176.269 14.866C176.283 14.194 176.148 13.697 175.863 13.375C175.583 13.053 175.098 12.892 174.407 12.892C173.95 12.892 173.548 12.997 173.203 13.207C172.862 13.4123 172.622 13.7483 172.482 14.215L171.299 13.858C171.481 13.1953 171.833 12.675 172.356 12.297C172.879 11.919 173.567 11.73 174.421 11.73C175.107 11.73 175.695 11.8537 176.185 12.101C176.68 12.3437 177.034 12.7123 177.249 13.207C177.356 13.4403 177.424 13.6947 177.452 13.97C177.48 14.2407 177.494 14.5253 177.494 14.824V19.5H176.388V17.687L176.647 17.855C176.362 18.4663 175.963 18.9283 175.45 19.241C174.941 19.5537 174.321 19.71 173.588 19.71ZM173.777 18.667C174.225 18.667 174.612 18.5877 174.939 18.429C175.27 18.2657 175.536 18.0533 175.737 17.792C175.938 17.526 176.068 17.2367 176.129 16.924C176.199 16.6907 176.236 16.4317 176.241 16.147C176.25 15.8577 176.255 15.636 176.255 15.482L176.689 15.671C176.283 15.727 175.884 15.7807 175.492 15.832C175.1 15.8833 174.729 15.9393 174.379 16C174.029 16.056 173.714 16.1237 173.434 16.203C173.229 16.2683 173.035 16.3523 172.853 16.455C172.676 16.5577 172.531 16.6907 172.419 16.854C172.312 17.0127 172.258 17.211 172.258 17.449C172.258 17.6543 172.309 17.8503 172.412 18.037C172.519 18.2237 172.683 18.3753 172.902 18.492C173.126 18.6087 173.418 18.667 173.777 18.667ZM184.697 19.5V15.713C184.697 15.3537 184.664 15.0083 184.599 14.677C184.538 14.3457 184.429 14.0493 184.27 13.788C184.116 13.522 183.906 13.312 183.64 13.158C183.379 13.004 183.047 12.927 182.646 12.927C182.333 12.927 182.049 12.9807 181.792 13.088C181.54 13.1907 181.323 13.3493 181.141 13.564C180.959 13.7787 180.817 14.0493 180.714 14.376C180.616 14.698 180.567 15.0783 180.567 15.517L179.748 15.265C179.748 14.5323 179.879 13.9047 180.14 13.382C180.406 12.8547 180.777 12.451 181.253 12.171C181.734 11.8863 182.298 11.744 182.947 11.744C183.437 11.744 183.855 11.821 184.2 11.975C184.545 12.129 184.832 12.3343 185.061 12.591C185.29 12.843 185.469 13.1277 185.6 13.445C185.731 13.7577 185.822 14.0773 185.873 14.404C185.929 14.726 185.957 15.0317 185.957 15.321V19.5H184.697ZM179.307 19.5V11.94H180.427V13.963H180.567V19.5H179.307Z" fill="#1C140C"/>
<path d="M214.246 23.2517L219.264 14.5595M212.073 8.72695C213.217 9.15685 215.504 10.0166 216.592 13.0053C217.68 15.994 216.48 18.1229 215.88 19.1874C214.737 18.7575 212.449 17.8977 211.362 14.909C210.274 11.9203 211.473 9.79139 212.073 8.72695ZM217.016 19.6732C217.638 18.6216 218.882 16.5183 222.014 15.9661C225.146 15.4138 227.035 16.9647 227.979 17.7402C227.357 18.7918 226.113 20.8951 222.981 21.4474C219.849 21.9997 217.96 20.4487 217.016 19.6732ZM219.312 14.4766C218.906 13.3241 218.095 11.0193 219.685 8.2649C221.275 5.51051 223.677 5.06096 224.878 4.83618C225.284 5.9886 226.095 8.29345 224.505 11.0478C222.915 13.8022 220.513 14.2518 219.312 14.4766Z" stroke="#704A24" stroke-width="1.5" stroke-linecap="round"/>
<path d="M239.061 19.71C238.37 19.71 237.74 19.5887 237.171 19.346C236.602 19.1033 236.112 18.7557 235.701 18.303C235.29 17.8457 234.973 17.295 234.749 16.651C234.53 16.0023 234.42 15.272 234.42 14.46C234.42 13.3867 234.611 12.458 234.994 11.674C235.377 10.89 235.916 10.2857 236.611 9.861C237.306 9.43167 238.123 9.217 239.061 9.217C240.19 9.217 241.1 9.48067 241.791 10.008C242.482 10.5307 242.958 11.247 243.219 12.157L241.959 12.416C241.749 11.8047 241.404 11.317 240.923 10.953C240.442 10.589 239.843 10.407 239.124 10.407C238.373 10.4023 237.747 10.5703 237.248 10.911C236.753 11.247 236.38 11.7207 236.128 12.332C235.876 12.9433 235.748 13.6527 235.743 14.46C235.738 15.2627 235.862 15.9673 236.114 16.574C236.366 17.1807 236.742 17.6567 237.241 18.002C237.745 18.3427 238.373 18.5153 239.124 18.52C239.773 18.5247 240.319 18.401 240.762 18.149C241.205 17.897 241.548 17.533 241.791 17.057C242.034 16.581 242.181 16.0093 242.232 15.342H240.09V14.313H243.548C243.562 14.4063 243.569 14.5183 243.569 14.649C243.574 14.775 243.576 14.8613 243.576 14.908C243.576 15.8273 243.403 16.651 243.058 17.379C242.717 18.1023 242.211 18.6717 241.539 19.087C240.872 19.5023 240.046 19.71 239.061 19.71ZM245.114 19.5V9.21H246.36V19.5H245.114ZM251.33 19.696C250.845 19.696 250.427 19.619 250.077 19.465C249.732 19.311 249.445 19.1057 249.216 18.849C248.988 18.5923 248.808 18.3077 248.677 17.995C248.547 17.6823 248.453 17.3627 248.397 17.036C248.346 16.7093 248.32 16.4037 248.32 16.119V11.94H249.58V15.727C249.58 16.0817 249.613 16.4247 249.678 16.756C249.744 17.0873 249.853 17.386 250.007 17.652C250.166 17.918 250.376 18.128 250.637 18.282C250.903 18.436 251.235 18.513 251.631 18.513C251.944 18.513 252.229 18.4593 252.485 18.352C252.742 18.2447 252.961 18.086 253.143 17.876C253.325 17.6613 253.465 17.3907 253.563 17.064C253.661 16.7373 253.71 16.357 253.71 15.923L254.529 16.175C254.529 16.903 254.396 17.5307 254.13 18.058C253.869 18.5853 253.498 18.9913 253.017 19.276C252.541 19.556 251.979 19.696 251.33 19.696ZM253.85 19.5V17.477H253.71V11.94H254.963V19.5H253.85ZM261.144 19.5C260.696 19.5887 260.253 19.6237 259.814 19.605C259.38 19.591 258.993 19.5047 258.652 19.346C258.312 19.1827 258.053 18.9307 257.875 18.59C257.726 18.2913 257.644 17.9903 257.63 17.687C257.621 17.379 257.616 17.0313 257.616 16.644V9.84H258.862V16.588C258.862 16.896 258.865 17.1597 258.869 17.379C258.879 17.5983 258.928 17.7873 259.016 17.946C259.184 18.2447 259.45 18.4197 259.814 18.471C260.183 18.5223 260.626 18.5083 261.144 18.429V19.5ZM256.083 12.969V11.94H261.144V12.969H256.083ZM265.641 19.71C264.899 19.71 264.25 19.5467 263.695 19.22C263.144 18.8887 262.715 18.429 262.407 17.841C262.099 17.2483 261.945 16.5577 261.945 15.769C261.945 14.943 262.096 14.229 262.4 13.627C262.703 13.0203 263.125 12.5537 263.667 12.227C264.213 11.8957 264.852 11.73 265.585 11.73C266.345 11.73 266.992 11.905 267.524 12.255C268.06 12.605 268.462 13.1043 268.728 13.753C268.998 14.4017 269.115 15.174 269.078 16.07H267.818V15.622C267.804 14.6933 267.615 14.0003 267.251 13.543C266.887 13.081 266.345 12.85 265.627 12.85C264.857 12.85 264.271 13.0973 263.87 13.592C263.468 14.0867 263.268 14.796 263.268 15.72C263.268 16.6113 263.468 17.302 263.87 17.792C264.271 18.282 264.843 18.527 265.585 18.527C266.084 18.527 266.518 18.4127 266.887 18.184C267.255 17.9553 267.545 17.6263 267.755 17.197L268.952 17.61C268.658 18.2773 268.214 18.7953 267.622 19.164C267.034 19.528 266.373 19.71 265.641 19.71ZM262.848 16.07V15.069H268.434V16.07H262.848ZM275.814 19.5V15.713C275.814 15.3537 275.782 15.0083 275.716 14.677C275.656 14.3457 275.546 14.0493 275.387 13.788C275.233 13.522 275.023 13.312 274.757 13.158C274.496 13.004 274.165 12.927 273.763 12.927C273.451 12.927 273.166 12.9807 272.909 13.088C272.657 13.1907 272.44 13.3493 272.258 13.564C272.076 13.7787 271.934 14.0493 271.831 14.376C271.733 14.698 271.684 15.0783 271.684 15.517L270.865 15.265C270.865 14.5323 270.996 13.9047 271.257 13.382C271.523 12.8547 271.894 12.451 272.37 12.171C272.851 11.8863 273.416 11.744 274.064 11.744C274.554 11.744 274.972 11.821 275.317 11.975C275.663 12.129 275.95 12.3343 276.178 12.591C276.407 12.843 276.587 13.1277 276.717 13.445C276.848 13.7577 276.939 14.0773 276.99 14.404C277.046 14.726 277.074 15.0317 277.074 15.321V19.5H275.814ZM270.424 19.5V11.94H271.544V13.963H271.684V19.5H270.424ZM282.418 19.5V11.527C282.418 11.331 282.427 11.1327 282.446 10.932C282.464 10.7267 282.506 10.5283 282.572 10.337C282.637 10.141 282.744 9.96133 282.894 9.798C283.066 9.60667 283.255 9.47133 283.461 9.392C283.666 9.308 283.874 9.25667 284.084 9.238C284.298 9.21933 284.501 9.21 284.693 9.21H285.652V10.246H284.763C284.394 10.246 284.119 10.337 283.937 10.519C283.755 10.6963 283.664 10.967 283.664 11.331V19.5H282.418ZM281.137 12.969V11.94H285.652V12.969H281.137ZM286.769 19.5V11.94H287.882V13.767L287.7 13.529C287.789 13.2957 287.903 13.081 288.043 12.885C288.188 12.689 288.349 12.528 288.526 12.402C288.722 12.2433 288.944 12.122 289.191 12.038C289.438 11.954 289.69 11.905 289.947 11.891C290.204 11.8723 290.444 11.8887 290.668 11.94V13.109C290.407 13.039 290.12 13.0203 289.807 13.053C289.494 13.0857 289.205 13.2 288.939 13.396C288.696 13.5687 288.507 13.7787 288.372 14.026C288.241 14.2733 288.15 14.5417 288.099 14.831C288.048 15.1157 288.022 15.4073 288.022 15.706V19.5H286.769ZM295.131 19.71C294.389 19.71 293.74 19.5467 293.185 19.22C292.634 18.8887 292.205 18.429 291.897 17.841C291.589 17.2483 291.435 16.5577 291.435 15.769C291.435 14.943 291.587 14.229 291.89 13.627C292.193 13.0203 292.616 12.5537 293.157 12.227C293.703 11.8957 294.342 11.73 295.075 11.73C295.836 11.73 296.482 11.905 297.014 12.255C297.551 12.605 297.952 13.1043 298.218 13.753C298.489 14.4017 298.605 15.174 298.568 16.07H297.308V15.622C297.294 14.6933 297.105 14.0003 296.741 13.543C296.377 13.081 295.836 12.85 295.117 12.85C294.347 12.85 293.761 13.0973 293.36 13.592C292.959 14.0867 292.758 14.796 292.758 15.72C292.758 16.6113 292.959 17.302 293.36 17.792C293.761 18.282 294.333 18.527 295.075 18.527C295.574 18.527 296.008 18.4127 296.377 18.184C296.746 17.9553 297.035 17.6263 297.245 17.197L298.442 17.61C298.148 18.2773 297.705 18.7953 297.112 19.164C296.524 19.528 295.864 19.71 295.131 19.71ZM292.338 16.07V15.069H297.924V16.07H292.338ZM303.402 19.71C302.66 19.71 302.012 19.5467 301.456 19.22C300.906 18.8887 300.476 18.429 300.168 17.841C299.86 17.2483 299.706 16.5577 299.706 15.769C299.706 14.943 299.858 14.229 300.161 13.627C300.465 13.0203 300.887 12.5537 301.428 12.227C301.974 11.8957 302.614 11.73 303.346 11.73C304.107 11.73 304.753 11.905 305.285 12.255C305.822 12.605 306.223 13.1043 306.489 13.753C306.76 14.4017 306.877 15.174 306.839 16.07H305.579V15.622C305.565 14.6933 305.376 14.0003 305.012 13.543C304.648 13.081 304.107 12.85 303.388 12.85C302.618 12.85 302.033 13.0973 301.631 13.592C301.23 14.0867 301.029 14.796 301.029 15.72C301.029 16.6113 301.23 17.302 301.631 17.792C302.033 18.282 302.604 18.527 303.346 18.527C303.846 18.527 304.28 18.4127 304.648 18.184C305.017 17.9553 305.306 17.6263 305.516 17.197L306.713 17.61C306.419 18.2773 305.976 18.7953 305.383 19.164C304.795 19.528 304.135 19.71 303.402 19.71ZM300.609 16.07V15.069H306.195V16.07H300.609Z" fill="#1C140C"/>
</svg>
