<svg width="82" height="52" viewBox="0 0 82 52" fill="none" xmlns="http://www.w3.org/2000/svg">
<mask id="path-1-outside-1_3302_8702" maskUnits="userSpaceOnUse" x="0" y="0.337891" width="82" height="52" fill="black">
<rect fill="white" y="0.337891" width="82" height="52"/>
<path d="M13.786 7.252C13.786 8.1459 13.5705 8.952 13.1395 9.67032C12.7245 10.3886 12.1019 10.9473 11.2719 11.3464C12.3414 11.6976 13.1714 12.2323 13.762 12.9506C14.3686 13.6689 14.6719 14.467 14.6719 15.345C14.6719 16.7976 14.177 17.9469 13.1874 18.7929C12.1977 19.6389 10.6174 20.0619 8.44651 20.0619H1.7662L1.47888 19.2478L2.02958 19.1042C2.63616 18.9286 3.0432 18.6971 3.25071 18.4098C3.45823 18.1225 3.56198 17.6117 3.56198 16.8774V5.04917C3.56198 4.84166 3.52207 4.698 3.44226 4.61819C3.36245 4.52241 3.22677 4.47452 3.03522 4.47452H1.64648L1.35916 3.5886C2.04554 3.31724 2.94743 3.0778 4.0648 2.87029C5.18218 2.64682 6.25964 2.53508 7.29721 2.53508C9.48407 2.53508 11.1122 2.97405 12.1817 3.85199C13.2512 4.72992 13.786 5.86326 13.786 7.252ZM5.93241 15.6802C5.93241 16.9891 6.19579 17.8431 6.72256 18.2422C7.24932 18.6253 7.87186 18.8168 8.59017 18.8168C9.70754 18.8168 10.5855 18.4896 11.224 17.8351C11.8625 17.1647 12.1817 16.2948 12.1817 15.2253C12.1817 14.6187 12.0221 14.068 11.7029 13.5731C11.3996 13.0624 10.9606 12.6553 10.386 12.352C9.8113 12.0487 9.14087 11.8971 8.37468 11.8971C8.10331 11.8971 7.81599 11.8652 7.5127 11.8013C7.22538 11.7375 6.99392 11.6656 6.81833 11.5858C6.57889 11.4741 6.45918 11.2985 6.45918 11.0591C6.45918 10.7717 6.57091 10.6281 6.79439 10.6281C6.85824 10.6281 6.98594 10.66 7.17749 10.7238C7.385 10.7717 7.65636 10.7957 7.99158 10.7957C9.07703 10.7957 9.91506 10.4764 10.5057 9.83792C11.1122 9.19942 11.4155 8.35341 11.4155 7.29989C11.4155 6.29425 11.0723 5.47218 10.386 4.83368C9.71553 4.19518 8.76576 3.87593 7.53664 3.87593C6.46716 3.87593 5.93241 4.24307 5.93241 4.97734V15.6802ZM20.5469 11.4182C20.8183 10.3487 21.2333 9.48675 21.792 8.83229C22.3666 8.17782 22.9892 7.85059 23.6596 7.85059C24.33 7.85059 24.8807 8.07407 25.3117 8.52102C25.7586 8.95201 25.9821 9.54262 25.9821 10.2929C25.9821 10.8994 25.7586 11.4102 25.3117 11.8253C24.8647 12.2403 24.3061 12.4478 23.6356 12.4478C23.3323 12.4478 23.1807 12.36 23.1807 12.1844C23.1807 12.1365 23.2446 12.0168 23.3723 11.8253C23.5159 11.6337 23.6277 11.4342 23.7075 11.2267C23.8032 11.0191 23.8511 10.7877 23.8511 10.5323C23.8511 10.245 23.7713 10.0215 23.6117 9.86187C23.468 9.68628 23.2845 9.59849 23.061 9.59849C22.6779 9.59849 22.2788 9.82994 21.8638 10.2929C21.4647 10.7398 21.1215 11.4741 20.8342 12.4957C20.5469 13.5013 20.4032 14.7783 20.4032 16.3267C20.4032 17.045 20.4591 17.6276 20.5708 18.0746C20.6826 18.5056 20.8821 18.9206 21.1694 19.3197L21.4568 19.7028L21.1694 20.0619H16.9793L16.7159 19.3197L17.2187 19.1999C17.6178 19.1042 17.8812 18.9366 18.0089 18.6971C18.1525 18.4417 18.2243 18.0107 18.2243 17.4042V10.676C18.2243 10.4844 18.1844 10.3487 18.1046 10.2689C18.0408 10.1891 17.9211 10.1492 17.7455 10.1492H16.6919L16.4765 9.52666C16.9394 9.11163 17.4661 8.76844 18.0567 8.49707C18.6633 8.22571 19.1901 8.09003 19.637 8.09003C19.8605 8.09003 20.0441 8.16186 20.1877 8.30552C20.3314 8.44919 20.4032 8.63275 20.4032 8.85623V11.4182H20.5469ZM38.4933 18.2661C37.9027 18.9525 37.2003 19.4793 36.3862 19.8464C35.5722 20.2136 34.6942 20.3971 33.7524 20.3971C32.651 20.3971 31.6853 20.1417 30.8552 19.6309C30.0252 19.1201 29.3787 18.4018 28.9158 17.476C28.4688 16.5502 28.2454 15.4807 28.2454 14.2675C28.2454 12.9905 28.5008 11.8731 29.0116 10.9154C29.5224 9.94168 30.2407 9.19144 31.1665 8.66468C32.1083 8.12195 33.2017 7.85059 34.4468 7.85059C35.3247 7.85059 36.067 8.0182 36.6736 8.35341C37.2961 8.67266 37.759 9.10365 38.0623 9.64637C38.3656 10.1731 38.5172 10.7478 38.5172 11.3703C38.5172 12.0407 38.3337 12.6872 37.9665 13.3098C37.6154 13.9323 37.0966 14.4431 36.4102 14.8422C35.7238 15.2253 34.9017 15.4168 33.944 15.4168C33.4332 15.4168 32.8665 15.321 32.244 15.1295C31.6214 14.9379 31.3102 14.6586 31.3102 14.2915C31.3102 14.1638 31.3421 14.044 31.4059 13.9323C31.4858 13.8206 31.5736 13.7647 31.6693 13.7647C31.7172 13.7647 31.8768 13.8206 32.1482 13.9323C32.4196 14.0281 32.7707 14.076 33.2017 14.076C34.1595 14.076 34.9017 13.8046 35.4285 13.2619C35.9712 12.7192 36.2426 12.0807 36.2426 11.3464C36.2426 10.7238 36.0431 10.1891 35.644 9.74215C35.2449 9.27924 34.6862 9.04778 33.9679 9.04778C32.9463 9.04778 32.1482 9.50271 31.5736 10.4126C30.9989 11.3065 30.7116 12.5915 30.7116 14.2675C30.7116 15.6882 31.0149 16.8056 31.6214 17.6196C32.228 18.4178 33.106 18.8168 34.2553 18.8168C35.66 18.8168 36.8252 18.3619 37.751 17.452C37.8149 17.3882 37.8867 17.3563 37.9665 17.3563C38.0942 17.3563 38.2299 17.4361 38.3736 17.5957C38.5172 17.7394 38.5891 17.891 38.5891 18.0506C38.5891 18.1304 38.5571 18.2023 38.4933 18.2661ZM51.8131 17.9549C51.8131 18.4497 52.0526 18.6971 52.5314 18.6971C52.9305 18.6971 53.3296 18.5535 53.7286 18.2661L54.1836 18.8887C53.7685 19.3516 53.3216 19.7187 52.8427 19.9901C52.3638 20.2614 51.9249 20.3971 51.5258 20.3971C50.8713 20.3971 50.4004 20.1976 50.1131 19.7985C49.8258 19.3995 49.6821 18.753 49.6821 17.8591C49.0277 18.7849 48.3572 19.4394 47.6709 19.8225C46.9845 20.2056 46.2422 20.3971 45.4441 20.3971C44.6779 20.3971 43.9676 20.1816 43.3131 19.7506C42.6586 19.3037 42.1319 18.6412 41.7328 17.7633C41.3497 16.8854 41.1582 15.8239 41.1582 14.5788C41.1582 13.206 41.4056 12.0168 41.9004 11.0112C42.4112 9.98957 43.1295 9.20741 44.0554 8.66468C44.9971 8.12195 46.0986 7.85059 47.3596 7.85059C48.1896 7.85059 48.9479 7.95435 49.6342 8.16186V3.92382C49.6342 3.73227 49.5943 3.59659 49.5145 3.51677C49.4507 3.43696 49.331 3.39705 49.1554 3.39705H48.1018L47.8864 2.77452C48.3493 2.35949 48.876 2.0163 49.4666 1.74493C50.0732 1.47357 50.6 1.33789 51.0469 1.33789C51.2704 1.33789 51.454 1.40972 51.5976 1.55338C51.7413 1.69705 51.8131 1.88062 51.8131 2.10409V17.9549ZM43.6723 14.1239C43.6723 15.6403 43.9277 16.7577 44.4385 17.476C44.9652 18.1943 45.6197 18.5534 46.4018 18.5534C47.0403 18.5534 47.6389 18.3779 48.1976 18.0267C48.7563 17.6596 49.2511 17.1088 49.6821 16.3746V9.90976C48.9479 9.41492 48.1657 9.1675 47.3356 9.1675C46.1704 9.1675 45.2685 9.60647 44.63 10.4844C43.9915 11.3464 43.6723 12.5595 43.6723 14.1239ZM56.4945 4.30692C56.4945 4.00363 56.6621 3.66842 56.9973 3.30128C57.3485 2.91818 57.6678 2.72663 57.9551 2.72663C58.2584 2.72663 58.5856 2.9102 58.9368 3.27734C59.2879 3.64447 59.4635 3.98767 59.4635 4.30692C59.4635 4.6102 59.2879 4.94542 58.9368 5.31255C58.5856 5.67969 58.2584 5.86326 57.9551 5.86326C57.6837 5.86326 57.3724 5.67969 57.0213 5.31255C56.6701 4.94542 56.4945 4.6102 56.4945 4.30692ZM59.0565 17.4042C59.0565 18.5968 60.2608 18.2661 60.2608 18.2661V20.0619C60.2608 20.0619 60.2608 20.3971 58.7213 20.3971C58.0668 20.3971 57.5959 20.1976 57.3086 19.7985C57.0213 19.3995 56.8776 18.753 56.8776 17.8591V10.4365C56.8776 10.245 56.8377 10.1093 56.7579 10.0295C56.694 9.94966 56.5743 9.90976 56.3987 9.90976H55.3452L55.1297 9.28722C55.5926 8.87219 56.1194 8.529 56.71 8.25764C57.3006 7.98627 57.8274 7.85059 58.2903 7.85059C58.5138 7.85059 58.6973 7.92242 58.841 8.06609C58.9847 8.20975 59.0565 8.39332 59.0565 8.61679V17.4042ZM66.8747 16.2309C66.8747 16.9811 66.9305 17.5797 67.0423 18.0267C67.154 18.4736 67.3536 18.9046 67.6409 19.3197L67.9282 19.7028L67.6409 20.0619H63.4507L63.1873 19.3197L63.6902 19.1999C64.0892 19.1042 64.3526 18.9366 64.4803 18.6971C64.624 18.4417 64.6958 18.0107 64.6958 17.4042V10.676C64.6958 10.4844 64.6559 10.3487 64.5761 10.2689C64.5122 10.1891 64.3925 10.1492 64.2169 10.1492H63.1634L62.9479 9.52666C63.4108 9.11163 63.9376 8.76844 64.5282 8.49707C65.1348 8.22571 65.6615 8.09003 66.1085 8.09003C66.332 8.09003 66.5155 8.16186 66.6592 8.30552C66.8029 8.44919 66.8747 8.63275 66.8747 8.85623V11.4182C67.2897 10.3806 67.9122 9.52666 68.7423 8.85623C69.5723 8.1858 70.4423 7.85059 71.3522 7.85059C72.4695 7.85059 73.2836 8.19379 73.7944 8.88017C74.3052 9.56656 74.5606 10.66 74.5606 12.1605V17.9549C74.5606 18.4976 74.8001 18.7689 75.2789 18.7689C75.6461 18.7689 76.0451 18.6013 76.4761 18.2661L76.9311 18.8887C76.516 19.3516 76.0691 19.7187 75.5902 19.9901C75.1113 20.2614 74.6644 20.3971 74.2494 20.3971C73.5949 20.3971 73.124 20.1976 72.8367 19.7985C72.5494 19.3995 72.4057 18.753 72.4057 17.8591V12.1605C72.4057 10.5323 71.7193 9.71821 70.3465 9.71821C69.6601 9.71821 69.0536 9.98957 68.5268 10.5323C68.016 11.075 67.609 11.8412 67.3057 12.8309C67.0183 13.8206 66.8747 14.9539 66.8747 16.2309Z"/>
<path d="M7.60848 33.1352C7.17749 33.1352 6.82631 33.1911 6.55495 33.3028C6.28359 33.3986 6.12396 33.4465 6.07608 33.4465C5.9803 33.4465 5.89251 33.3906 5.81269 33.2789C5.74884 33.1671 5.71692 33.0474 5.71692 32.9197C5.71692 32.7282 5.78875 32.5845 5.93241 32.4887C6.66669 32.0258 7.47279 31.7943 8.35073 31.7943C9.34041 31.7943 10.2183 32.0418 10.9845 32.5366C11.7667 33.0314 12.3733 33.7178 12.8043 34.5958C13.2353 35.4737 13.4508 36.4714 13.4508 37.5887C13.4508 38.8657 13.1794 40.023 12.6367 41.0606C12.0939 42.0822 11.3517 42.8883 10.4099 43.4789C9.46811 44.0535 8.4066 44.3409 7.22538 44.3409C6.29955 44.3409 5.43758 44.2052 4.63945 43.9338C3.84133 43.6625 3.21081 43.2953 2.74789 42.8324V27.8676C2.74789 27.676 2.70799 27.5403 2.62818 27.4605C2.56433 27.3807 2.44461 27.3408 2.26902 27.3408H1.21549L1 26.7183C1.46291 26.3032 1.98968 25.9601 2.58029 25.6887C3.1709 25.4173 3.69766 25.2816 4.16058 25.2816C4.38405 25.2816 4.56762 25.3535 4.71128 25.4971C4.85494 25.6408 4.92678 25.8244 4.92678 26.0478V42.2338C5.30988 42.5052 5.69298 42.7047 6.07608 42.8324C6.47514 42.9442 6.93007 43 7.44087 43C8.51036 43 9.35637 42.5611 9.97891 41.6831C10.6014 40.7892 10.9127 39.584 10.9127 38.0676C10.9127 37.1099 10.7691 36.2559 10.4817 35.5056C10.2104 34.7554 9.82726 34.1728 9.33243 33.7577C8.83759 33.3427 8.26294 33.1352 7.60848 33.1352ZM24.8442 41.8028C24.1898 42.7287 23.5193 43.3831 22.833 43.7662C22.1466 44.1493 21.4043 44.3409 20.6062 44.3409C19.84 44.3409 19.1297 44.1254 18.4752 43.6944C17.8207 43.2474 17.294 42.585 16.8949 41.7071C16.5118 40.8291 16.3203 39.7676 16.3203 38.5225C16.3203 37.1498 16.5677 35.9606 17.0625 34.9549C17.5733 33.9333 18.2916 33.1512 19.2175 32.6084C20.1592 32.0657 21.2607 31.7943 22.5217 31.7943C23.1442 31.7943 24.0222 31.8981 25.1555 32.1056C26.1133 32.2652 26.8316 32.361 27.3104 32.3929L27.5738 32.7042L27.2865 33.1352C27.1748 33.2948 27.0949 33.4465 27.0471 33.5901C26.9992 33.7178 26.9752 33.8775 26.9752 34.069V41.8986C26.9752 42.987 27.4058 43.1907 27.9367 42.8085V44.0057C27.9367 44.3409 27.2133 44.3409 26.6879 44.3409C26.0334 44.3409 25.5625 44.1413 25.2752 43.7423C24.9879 43.3432 24.8442 42.6967 24.8442 41.8028ZM18.8344 38.0676C18.8344 39.584 19.0898 40.7014 19.6006 41.4197C20.1273 42.138 20.7818 42.4972 21.5639 42.4972C22.2024 42.4972 22.801 42.3216 23.3597 41.9704C23.9184 41.6033 24.4132 41.0526 24.8442 40.3183V33.8535C24.11 33.3587 23.3278 33.1113 22.4977 33.1113C21.3325 33.1113 20.4306 33.5502 19.7921 34.4282C19.1536 35.2901 18.8344 36.5033 18.8344 38.0676ZM34.7932 38.3549C34.4899 38.2751 34.3383 38.1075 34.3383 37.8521C34.3383 37.7244 34.3622 37.6207 34.4101 37.5408C34.474 37.4451 34.5698 37.3972 34.6975 37.3972C34.7453 37.3972 34.905 37.4371 35.1763 37.5169C35.4477 37.5808 35.7989 37.6127 36.2299 37.6127C36.8205 37.6127 37.3233 37.493 37.7383 37.2535C38.1533 37.0141 38.4646 36.7028 38.6721 36.3197C38.8796 35.9366 38.9834 35.5455 38.9834 35.1465C38.9834 34.6676 38.8397 34.2685 38.5524 33.9493C38.281 33.6141 37.89 33.4465 37.3792 33.4465C36.597 33.4465 35.9106 33.7258 35.32 34.2845C34.7294 34.8432 34.2745 35.6333 33.9552 36.6549C33.6519 37.6765 33.5003 38.8498 33.5003 40.1747C33.5003 40.9409 33.5561 41.5554 33.6679 42.0183C33.7796 42.4653 33.9791 42.8803 34.2665 43.2634L34.5538 43.6465L34.2665 44.0057C34.2665 44.0057 31.7831 44.0057 30.9297 44.0057C30.5542 42.9476 31.3214 42.5089 31.3214 41.3479V27.8676C31.3214 27.676 31.2815 27.5403 31.2017 27.4605C31.1378 27.3807 31.0181 27.3408 30.8425 27.3408H29.789L29.5735 26.7183C30.0364 26.3032 30.5632 25.9601 31.1538 25.6887C31.7604 25.4173 32.2871 25.2816 32.7341 25.2816C32.9575 25.2816 33.1411 25.3535 33.2848 25.4971C33.4284 25.6408 33.5003 25.8244 33.5003 26.0478V35.362C33.8993 34.3084 34.4979 33.4544 35.2961 32.8C36.1101 32.1296 36.9562 31.7943 37.8341 31.7943C38.8876 31.7943 39.7017 32.0976 40.2764 32.7042C40.851 33.3108 41.1383 34.053 41.1383 34.931C41.1383 35.4897 40.9947 36.0404 40.7073 36.5831C40.436 37.1099 40.0289 37.5648 39.4862 37.9479C38.9594 38.315 38.3289 38.5385 37.5947 38.6183L39.4623 42.162C39.59 42.4174 39.7336 42.593 39.8933 42.6888C40.0529 42.7845 40.2444 42.8324 40.4679 42.8324C40.6754 42.8324 40.8909 42.7765 41.1144 42.6648C41.3379 42.5531 41.5454 42.4014 41.7369 42.2099L42.2397 42.8324C41.5055 43.8381 40.6515 44.3409 39.6778 44.3409C39.1989 44.3409 38.7918 44.2451 38.4566 44.0535C38.1374 43.862 37.858 43.5986 37.6186 43.2634C37.3951 42.9282 37.1158 42.4413 36.7806 41.8028L35.0087 38.4268L34.7932 38.3549ZM54.5225 42.2099C53.9319 42.8963 53.2296 43.423 52.4155 43.7902C51.6014 44.1573 50.7234 44.3409 49.7817 44.3409C48.6802 44.3409 47.7145 44.0855 46.8845 43.5747C46.0544 43.0639 45.4079 42.3456 44.945 41.4197C44.4981 40.4939 44.2746 39.4244 44.2746 38.2113C44.2746 36.9343 44.53 35.8169 45.0408 34.8591C45.5516 33.8854 46.2699 33.1352 47.1957 32.6084C48.1375 32.0657 49.2309 31.7943 50.476 31.7943C51.354 31.7943 52.0962 31.962 52.7028 32.2972C53.3253 32.6164 53.7882 33.0474 54.0915 33.5901C54.3948 34.1169 54.5465 34.6915 54.5465 35.3141C54.5465 35.9845 54.3629 36.631 53.9958 37.2535C53.6446 37.8761 53.1258 38.3869 52.4394 38.7859C51.753 39.169 50.931 39.3606 49.9732 39.3606C49.4624 39.3606 48.8957 39.2648 48.2732 39.0732C47.6507 38.8817 47.3394 38.6024 47.3394 38.2352C47.3394 38.1075 47.3713 37.9878 47.4352 37.8761C47.515 37.7643 47.6028 37.7085 47.6985 37.7085C47.7464 37.7085 47.9061 37.7643 48.1774 37.8761C48.4488 37.9718 48.8 38.0197 49.2309 38.0197C50.1887 38.0197 50.931 37.7484 51.4577 37.2056C52.0004 36.6629 52.2718 36.0244 52.2718 35.2901C52.2718 34.6676 52.0723 34.1329 51.6732 33.6859C51.2741 33.223 50.7155 32.9915 49.9971 32.9915C48.9755 32.9915 48.1774 33.4465 47.6028 34.3563C47.0281 35.2502 46.7408 36.5352 46.7408 38.2113C46.7408 39.6319 47.0441 40.7493 47.6507 41.5634C48.2572 42.3615 49.1352 42.7606 50.2845 42.7606C51.6892 42.7606 52.8544 42.3057 53.7803 41.3958C53.8441 41.3319 53.9159 41.3 53.9958 41.3C54.1235 41.3 54.2591 41.3798 54.4028 41.5395C54.5465 41.6831 54.6183 41.8348 54.6183 41.9944C54.6183 42.0742 54.5864 42.146 54.5225 42.2099ZM61.3775 35.362C61.6489 34.2925 62.0639 33.4305 62.6226 32.776C63.1973 32.1216 63.8198 31.7943 64.4902 31.7943C65.1606 31.7943 65.7113 32.0178 66.1423 32.4648C66.5893 32.8958 66.8128 33.4864 66.8128 34.2366C66.8128 34.8432 66.5893 35.354 66.1423 35.769C65.6954 36.184 65.1367 36.3915 64.4663 36.3915C64.163 36.3915 64.0113 36.3038 64.0113 36.1282C64.0113 36.0803 64.0752 35.9606 64.2029 35.769C64.3466 35.5775 64.4583 35.3779 64.5381 35.1704C64.6339 34.9629 64.6818 34.7314 64.6818 34.476C64.6818 34.1887 64.602 33.9652 64.4423 33.8056C64.2987 33.63 64.1151 33.5422 63.8916 33.5422C63.5085 33.5422 63.1095 33.7737 62.6944 34.2366C62.2954 34.6836 61.9522 35.4178 61.6649 36.4394C61.3775 37.4451 61.2339 38.7221 61.2339 40.2704C61.2339 40.9887 61.2897 41.5714 61.4015 42.0183C61.5132 42.4493 61.7127 42.8643 62.0001 43.2634L62.2874 43.6465L62.0001 44.0057H57.8099L57.5465 43.2634L58.0494 43.1437C58.4484 43.0479 58.7118 42.8803 58.8395 42.6409C58.9832 42.3855 59.055 41.9545 59.055 41.3479V34.6197C59.055 34.4282 59.0151 34.2925 58.9353 34.2127C58.8714 34.1329 58.7517 34.0929 58.5761 34.0929H57.5226L57.3071 33.4704C57.77 33.0554 58.2968 32.7122 58.8874 32.4408C59.494 32.1695 60.0207 32.0338 60.4677 32.0338C60.6911 32.0338 60.8747 32.1056 61.0184 32.2493C61.162 32.3929 61.2339 32.5765 61.2339 32.8V35.362H61.3775ZM75.6845 50.662C74.8066 50.662 74.0563 50.4944 73.4338 50.1592C72.8112 49.84 72.3483 49.417 72.045 48.8902C71.7418 48.3794 71.5901 47.8287 71.5901 47.2381C71.5901 46.4399 71.8615 45.7536 72.4042 45.1789C72.9469 44.6202 73.6892 44.3409 74.631 44.3409C74.7906 44.3409 74.9023 44.3648 74.9662 44.4127C75.046 44.4766 75.0859 44.5404 75.0859 44.6043C75.0859 44.6681 74.9742 44.8197 74.7507 45.0592C74.5272 45.2986 74.3277 45.5859 74.1521 45.9212C73.9925 46.2564 73.9127 46.6794 73.9127 47.1902C73.9127 47.8287 74.0962 48.3554 74.4634 48.7705C74.8465 49.2015 75.3573 49.4169 75.9958 49.4169C76.9854 49.4169 77.7117 49.0099 78.1746 48.1958C78.6376 47.3817 78.869 46.2883 78.869 44.9155V41.3718C78.5019 42.0742 77.9512 42.6329 77.2169 43.0479C76.4826 43.447 75.6765 43.6465 74.7986 43.6465C73.6652 43.6465 72.7793 43.3033 72.1408 42.6169C71.5023 41.9146 71.1831 40.9329 71.1831 39.6718V34.3563C71.1831 34.1648 71.1432 34.0291 71.0633 33.9493C70.9995 33.8695 70.8798 33.8296 70.7042 33.8296H69.6507L69.4352 33.207C69.8502 32.792 70.353 32.4488 70.9436 32.1774C71.5502 31.9061 72.1009 31.7704 72.5957 31.7704C72.8192 31.7704 73.0028 31.8422 73.1465 31.9859C73.2901 32.1296 73.3619 32.3131 73.3619 32.5366V39.1211C73.3619 40.0789 73.5535 40.8052 73.9366 41.3C74.3197 41.7949 74.8784 42.0423 75.6127 42.0423C76.6821 42.0423 77.5122 41.6432 78.1028 40.8451C78.7094 40.031 79.0127 38.9136 79.0127 37.493C79.0127 36.184 78.9568 35.2103 78.8451 34.5718C78.7333 33.9333 78.4779 33.3507 78.0789 32.8239L77.7915 32.4408L78.0789 32.0817L81 31.7704V44.5324C81 46.4958 80.5211 48.0043 79.5634 49.0578C78.6216 50.1273 77.3286 50.662 75.6845 50.662Z"/>
</mask>
<path d="M13.786 7.252C13.786 8.1459 13.5705 8.952 13.1395 9.67032C12.7245 10.3886 12.1019 10.9473 11.2719 11.3464C12.3414 11.6976 13.1714 12.2323 13.762 12.9506C14.3686 13.6689 14.6719 14.467 14.6719 15.345C14.6719 16.7976 14.177 17.9469 13.1874 18.7929C12.1977 19.6389 10.6174 20.0619 8.44651 20.0619H1.7662L1.47888 19.2478L2.02958 19.1042C2.63616 18.9286 3.0432 18.6971 3.25071 18.4098C3.45823 18.1225 3.56198 17.6117 3.56198 16.8774V5.04917C3.56198 4.84166 3.52207 4.698 3.44226 4.61819C3.36245 4.52241 3.22677 4.47452 3.03522 4.47452H1.64648L1.35916 3.5886C2.04554 3.31724 2.94743 3.0778 4.0648 2.87029C5.18218 2.64682 6.25964 2.53508 7.29721 2.53508C9.48407 2.53508 11.1122 2.97405 12.1817 3.85199C13.2512 4.72992 13.786 5.86326 13.786 7.252ZM5.93241 15.6802C5.93241 16.9891 6.19579 17.8431 6.72256 18.2422C7.24932 18.6253 7.87186 18.8168 8.59017 18.8168C9.70754 18.8168 10.5855 18.4896 11.224 17.8351C11.8625 17.1647 12.1817 16.2948 12.1817 15.2253C12.1817 14.6187 12.0221 14.068 11.7029 13.5731C11.3996 13.0624 10.9606 12.6553 10.386 12.352C9.8113 12.0487 9.14087 11.8971 8.37468 11.8971C8.10331 11.8971 7.81599 11.8652 7.5127 11.8013C7.22538 11.7375 6.99392 11.6656 6.81833 11.5858C6.57889 11.4741 6.45918 11.2985 6.45918 11.0591C6.45918 10.7717 6.57091 10.6281 6.79439 10.6281C6.85824 10.6281 6.98594 10.66 7.17749 10.7238C7.385 10.7717 7.65636 10.7957 7.99158 10.7957C9.07703 10.7957 9.91506 10.4764 10.5057 9.83792C11.1122 9.19942 11.4155 8.35341 11.4155 7.29989C11.4155 6.29425 11.0723 5.47218 10.386 4.83368C9.71553 4.19518 8.76576 3.87593 7.53664 3.87593C6.46716 3.87593 5.93241 4.24307 5.93241 4.97734V15.6802ZM20.5469 11.4182C20.8183 10.3487 21.2333 9.48675 21.792 8.83229C22.3666 8.17782 22.9892 7.85059 23.6596 7.85059C24.33 7.85059 24.8807 8.07407 25.3117 8.52102C25.7586 8.95201 25.9821 9.54262 25.9821 10.2929C25.9821 10.8994 25.7586 11.4102 25.3117 11.8253C24.8647 12.2403 24.3061 12.4478 23.6356 12.4478C23.3323 12.4478 23.1807 12.36 23.1807 12.1844C23.1807 12.1365 23.2446 12.0168 23.3723 11.8253C23.5159 11.6337 23.6277 11.4342 23.7075 11.2267C23.8032 11.0191 23.8511 10.7877 23.8511 10.5323C23.8511 10.245 23.7713 10.0215 23.6117 9.86187C23.468 9.68628 23.2845 9.59849 23.061 9.59849C22.6779 9.59849 22.2788 9.82994 21.8638 10.2929C21.4647 10.7398 21.1215 11.4741 20.8342 12.4957C20.5469 13.5013 20.4032 14.7783 20.4032 16.3267C20.4032 17.045 20.4591 17.6276 20.5708 18.0746C20.6826 18.5056 20.8821 18.9206 21.1694 19.3197L21.4568 19.7028L21.1694 20.0619H16.9793L16.7159 19.3197L17.2187 19.1999C17.6178 19.1042 17.8812 18.9366 18.0089 18.6971C18.1525 18.4417 18.2243 18.0107 18.2243 17.4042V10.676C18.2243 10.4844 18.1844 10.3487 18.1046 10.2689C18.0408 10.1891 17.9211 10.1492 17.7455 10.1492H16.6919L16.4765 9.52666C16.9394 9.11163 17.4661 8.76844 18.0567 8.49707C18.6633 8.22571 19.1901 8.09003 19.637 8.09003C19.8605 8.09003 20.0441 8.16186 20.1877 8.30552C20.3314 8.44919 20.4032 8.63275 20.4032 8.85623V11.4182H20.5469ZM38.4933 18.2661C37.9027 18.9525 37.2003 19.4793 36.3862 19.8464C35.5722 20.2136 34.6942 20.3971 33.7524 20.3971C32.651 20.3971 31.6853 20.1417 30.8552 19.6309C30.0252 19.1201 29.3787 18.4018 28.9158 17.476C28.4688 16.5502 28.2454 15.4807 28.2454 14.2675C28.2454 12.9905 28.5008 11.8731 29.0116 10.9154C29.5224 9.94168 30.2407 9.19144 31.1665 8.66468C32.1083 8.12195 33.2017 7.85059 34.4468 7.85059C35.3247 7.85059 36.067 8.0182 36.6736 8.35341C37.2961 8.67266 37.759 9.10365 38.0623 9.64637C38.3656 10.1731 38.5172 10.7478 38.5172 11.3703C38.5172 12.0407 38.3337 12.6872 37.9665 13.3098C37.6154 13.9323 37.0966 14.4431 36.4102 14.8422C35.7238 15.2253 34.9017 15.4168 33.944 15.4168C33.4332 15.4168 32.8665 15.321 32.244 15.1295C31.6214 14.9379 31.3102 14.6586 31.3102 14.2915C31.3102 14.1638 31.3421 14.044 31.4059 13.9323C31.4858 13.8206 31.5736 13.7647 31.6693 13.7647C31.7172 13.7647 31.8768 13.8206 32.1482 13.9323C32.4196 14.0281 32.7707 14.076 33.2017 14.076C34.1595 14.076 34.9017 13.8046 35.4285 13.2619C35.9712 12.7192 36.2426 12.0807 36.2426 11.3464C36.2426 10.7238 36.0431 10.1891 35.644 9.74215C35.2449 9.27924 34.6862 9.04778 33.9679 9.04778C32.9463 9.04778 32.1482 9.50271 31.5736 10.4126C30.9989 11.3065 30.7116 12.5915 30.7116 14.2675C30.7116 15.6882 31.0149 16.8056 31.6214 17.6196C32.228 18.4178 33.106 18.8168 34.2553 18.8168C35.66 18.8168 36.8252 18.3619 37.751 17.452C37.8149 17.3882 37.8867 17.3563 37.9665 17.3563C38.0942 17.3563 38.2299 17.4361 38.3736 17.5957C38.5172 17.7394 38.5891 17.891 38.5891 18.0506C38.5891 18.1304 38.5571 18.2023 38.4933 18.2661ZM51.8131 17.9549C51.8131 18.4497 52.0526 18.6971 52.5314 18.6971C52.9305 18.6971 53.3296 18.5535 53.7286 18.2661L54.1836 18.8887C53.7685 19.3516 53.3216 19.7187 52.8427 19.9901C52.3638 20.2614 51.9249 20.3971 51.5258 20.3971C50.8713 20.3971 50.4004 20.1976 50.1131 19.7985C49.8258 19.3995 49.6821 18.753 49.6821 17.8591C49.0277 18.7849 48.3572 19.4394 47.6709 19.8225C46.9845 20.2056 46.2422 20.3971 45.4441 20.3971C44.6779 20.3971 43.9676 20.1816 43.3131 19.7506C42.6586 19.3037 42.1319 18.6412 41.7328 17.7633C41.3497 16.8854 41.1582 15.8239 41.1582 14.5788C41.1582 13.206 41.4056 12.0168 41.9004 11.0112C42.4112 9.98957 43.1295 9.20741 44.0554 8.66468C44.9971 8.12195 46.0986 7.85059 47.3596 7.85059C48.1896 7.85059 48.9479 7.95435 49.6342 8.16186V3.92382C49.6342 3.73227 49.5943 3.59659 49.5145 3.51677C49.4507 3.43696 49.331 3.39705 49.1554 3.39705H48.1018L47.8864 2.77452C48.3493 2.35949 48.876 2.0163 49.4666 1.74493C50.0732 1.47357 50.6 1.33789 51.0469 1.33789C51.2704 1.33789 51.454 1.40972 51.5976 1.55338C51.7413 1.69705 51.8131 1.88062 51.8131 2.10409V17.9549ZM43.6723 14.1239C43.6723 15.6403 43.9277 16.7577 44.4385 17.476C44.9652 18.1943 45.6197 18.5534 46.4018 18.5534C47.0403 18.5534 47.6389 18.3779 48.1976 18.0267C48.7563 17.6596 49.2511 17.1088 49.6821 16.3746V9.90976C48.9479 9.41492 48.1657 9.1675 47.3356 9.1675C46.1704 9.1675 45.2685 9.60647 44.63 10.4844C43.9915 11.3464 43.6723 12.5595 43.6723 14.1239ZM56.4945 4.30692C56.4945 4.00363 56.6621 3.66842 56.9973 3.30128C57.3485 2.91818 57.6678 2.72663 57.9551 2.72663C58.2584 2.72663 58.5856 2.9102 58.9368 3.27734C59.2879 3.64447 59.4635 3.98767 59.4635 4.30692C59.4635 4.6102 59.2879 4.94542 58.9368 5.31255C58.5856 5.67969 58.2584 5.86326 57.9551 5.86326C57.6837 5.86326 57.3724 5.67969 57.0213 5.31255C56.6701 4.94542 56.4945 4.6102 56.4945 4.30692ZM59.0565 17.4042C59.0565 18.5968 60.2608 18.2661 60.2608 18.2661V20.0619C60.2608 20.0619 60.2608 20.3971 58.7213 20.3971C58.0668 20.3971 57.5959 20.1976 57.3086 19.7985C57.0213 19.3995 56.8776 18.753 56.8776 17.8591V10.4365C56.8776 10.245 56.8377 10.1093 56.7579 10.0295C56.694 9.94966 56.5743 9.90976 56.3987 9.90976H55.3452L55.1297 9.28722C55.5926 8.87219 56.1194 8.529 56.71 8.25764C57.3006 7.98627 57.8274 7.85059 58.2903 7.85059C58.5138 7.85059 58.6973 7.92242 58.841 8.06609C58.9847 8.20975 59.0565 8.39332 59.0565 8.61679V17.4042ZM66.8747 16.2309C66.8747 16.9811 66.9305 17.5797 67.0423 18.0267C67.154 18.4736 67.3536 18.9046 67.6409 19.3197L67.9282 19.7028L67.6409 20.0619H63.4507L63.1873 19.3197L63.6902 19.1999C64.0892 19.1042 64.3526 18.9366 64.4803 18.6971C64.624 18.4417 64.6958 18.0107 64.6958 17.4042V10.676C64.6958 10.4844 64.6559 10.3487 64.5761 10.2689C64.5122 10.1891 64.3925 10.1492 64.2169 10.1492H63.1634L62.9479 9.52666C63.4108 9.11163 63.9376 8.76844 64.5282 8.49707C65.1348 8.22571 65.6615 8.09003 66.1085 8.09003C66.332 8.09003 66.5155 8.16186 66.6592 8.30552C66.8029 8.44919 66.8747 8.63275 66.8747 8.85623V11.4182C67.2897 10.3806 67.9122 9.52666 68.7423 8.85623C69.5723 8.1858 70.4423 7.85059 71.3522 7.85059C72.4695 7.85059 73.2836 8.19379 73.7944 8.88017C74.3052 9.56656 74.5606 10.66 74.5606 12.1605V17.9549C74.5606 18.4976 74.8001 18.7689 75.2789 18.7689C75.6461 18.7689 76.0451 18.6013 76.4761 18.2661L76.9311 18.8887C76.516 19.3516 76.0691 19.7187 75.5902 19.9901C75.1113 20.2614 74.6644 20.3971 74.2494 20.3971C73.5949 20.3971 73.124 20.1976 72.8367 19.7985C72.5494 19.3995 72.4057 18.753 72.4057 17.8591V12.1605C72.4057 10.5323 71.7193 9.71821 70.3465 9.71821C69.6601 9.71821 69.0536 9.98957 68.5268 10.5323C68.016 11.075 67.609 11.8412 67.3057 12.8309C67.0183 13.8206 66.8747 14.9539 66.8747 16.2309Z" fill="#704A24"/>
<path d="M7.60848 33.1352C7.17749 33.1352 6.82631 33.1911 6.55495 33.3028C6.28359 33.3986 6.12396 33.4465 6.07608 33.4465C5.9803 33.4465 5.89251 33.3906 5.81269 33.2789C5.74884 33.1671 5.71692 33.0474 5.71692 32.9197C5.71692 32.7282 5.78875 32.5845 5.93241 32.4887C6.66669 32.0258 7.47279 31.7943 8.35073 31.7943C9.34041 31.7943 10.2183 32.0418 10.9845 32.5366C11.7667 33.0314 12.3733 33.7178 12.8043 34.5958C13.2353 35.4737 13.4508 36.4714 13.4508 37.5887C13.4508 38.8657 13.1794 40.023 12.6367 41.0606C12.0939 42.0822 11.3517 42.8883 10.4099 43.4789C9.46811 44.0535 8.4066 44.3409 7.22538 44.3409C6.29955 44.3409 5.43758 44.2052 4.63945 43.9338C3.84133 43.6625 3.21081 43.2953 2.74789 42.8324V27.8676C2.74789 27.676 2.70799 27.5403 2.62818 27.4605C2.56433 27.3807 2.44461 27.3408 2.26902 27.3408H1.21549L1 26.7183C1.46291 26.3032 1.98968 25.9601 2.58029 25.6887C3.1709 25.4173 3.69766 25.2816 4.16058 25.2816C4.38405 25.2816 4.56762 25.3535 4.71128 25.4971C4.85494 25.6408 4.92678 25.8244 4.92678 26.0478V42.2338C5.30988 42.5052 5.69298 42.7047 6.07608 42.8324C6.47514 42.9442 6.93007 43 7.44087 43C8.51036 43 9.35637 42.5611 9.97891 41.6831C10.6014 40.7892 10.9127 39.584 10.9127 38.0676C10.9127 37.1099 10.7691 36.2559 10.4817 35.5056C10.2104 34.7554 9.82726 34.1728 9.33243 33.7577C8.83759 33.3427 8.26294 33.1352 7.60848 33.1352ZM24.8442 41.8028C24.1898 42.7287 23.5193 43.3831 22.833 43.7662C22.1466 44.1493 21.4043 44.3409 20.6062 44.3409C19.84 44.3409 19.1297 44.1254 18.4752 43.6944C17.8207 43.2474 17.294 42.585 16.8949 41.7071C16.5118 40.8291 16.3203 39.7676 16.3203 38.5225C16.3203 37.1498 16.5677 35.9606 17.0625 34.9549C17.5733 33.9333 18.2916 33.1512 19.2175 32.6084C20.1592 32.0657 21.2607 31.7943 22.5217 31.7943C23.1442 31.7943 24.0222 31.8981 25.1555 32.1056C26.1133 32.2652 26.8316 32.361 27.3104 32.3929L27.5738 32.7042L27.2865 33.1352C27.1748 33.2948 27.0949 33.4465 27.0471 33.5901C26.9992 33.7178 26.9752 33.8775 26.9752 34.069V41.8986C26.9752 42.987 27.4058 43.1907 27.9367 42.8085V44.0057C27.9367 44.3409 27.2133 44.3409 26.6879 44.3409C26.0334 44.3409 25.5625 44.1413 25.2752 43.7423C24.9879 43.3432 24.8442 42.6967 24.8442 41.8028ZM18.8344 38.0676C18.8344 39.584 19.0898 40.7014 19.6006 41.4197C20.1273 42.138 20.7818 42.4972 21.5639 42.4972C22.2024 42.4972 22.801 42.3216 23.3597 41.9704C23.9184 41.6033 24.4132 41.0526 24.8442 40.3183V33.8535C24.11 33.3587 23.3278 33.1113 22.4977 33.1113C21.3325 33.1113 20.4306 33.5502 19.7921 34.4282C19.1536 35.2901 18.8344 36.5033 18.8344 38.0676ZM34.7932 38.3549C34.4899 38.2751 34.3383 38.1075 34.3383 37.8521C34.3383 37.7244 34.3622 37.6207 34.4101 37.5408C34.474 37.4451 34.5698 37.3972 34.6975 37.3972C34.7453 37.3972 34.905 37.4371 35.1763 37.5169C35.4477 37.5808 35.7989 37.6127 36.2299 37.6127C36.8205 37.6127 37.3233 37.493 37.7383 37.2535C38.1533 37.0141 38.4646 36.7028 38.6721 36.3197C38.8796 35.9366 38.9834 35.5455 38.9834 35.1465C38.9834 34.6676 38.8397 34.2685 38.5524 33.9493C38.281 33.6141 37.89 33.4465 37.3792 33.4465C36.597 33.4465 35.9106 33.7258 35.32 34.2845C34.7294 34.8432 34.2745 35.6333 33.9552 36.6549C33.6519 37.6765 33.5003 38.8498 33.5003 40.1747C33.5003 40.9409 33.5561 41.5554 33.6679 42.0183C33.7796 42.4653 33.9791 42.8803 34.2665 43.2634L34.5538 43.6465L34.2665 44.0057C34.2665 44.0057 31.7831 44.0057 30.9297 44.0057C30.5542 42.9476 31.3214 42.5089 31.3214 41.3479V27.8676C31.3214 27.676 31.2815 27.5403 31.2017 27.4605C31.1378 27.3807 31.0181 27.3408 30.8425 27.3408H29.789L29.5735 26.7183C30.0364 26.3032 30.5632 25.9601 31.1538 25.6887C31.7604 25.4173 32.2871 25.2816 32.7341 25.2816C32.9575 25.2816 33.1411 25.3535 33.2848 25.4971C33.4284 25.6408 33.5003 25.8244 33.5003 26.0478V35.362C33.8993 34.3084 34.4979 33.4544 35.2961 32.8C36.1101 32.1296 36.9562 31.7943 37.8341 31.7943C38.8876 31.7943 39.7017 32.0976 40.2764 32.7042C40.851 33.3108 41.1383 34.053 41.1383 34.931C41.1383 35.4897 40.9947 36.0404 40.7073 36.5831C40.436 37.1099 40.0289 37.5648 39.4862 37.9479C38.9594 38.315 38.3289 38.5385 37.5947 38.6183L39.4623 42.162C39.59 42.4174 39.7336 42.593 39.8933 42.6888C40.0529 42.7845 40.2444 42.8324 40.4679 42.8324C40.6754 42.8324 40.8909 42.7765 41.1144 42.6648C41.3379 42.5531 41.5454 42.4014 41.7369 42.2099L42.2397 42.8324C41.5055 43.8381 40.6515 44.3409 39.6778 44.3409C39.1989 44.3409 38.7918 44.2451 38.4566 44.0535C38.1374 43.862 37.858 43.5986 37.6186 43.2634C37.3951 42.9282 37.1158 42.4413 36.7806 41.8028L35.0087 38.4268L34.7932 38.3549ZM54.5225 42.2099C53.9319 42.8963 53.2296 43.423 52.4155 43.7902C51.6014 44.1573 50.7234 44.3409 49.7817 44.3409C48.6802 44.3409 47.7145 44.0855 46.8845 43.5747C46.0544 43.0639 45.4079 42.3456 44.945 41.4197C44.4981 40.4939 44.2746 39.4244 44.2746 38.2113C44.2746 36.9343 44.53 35.8169 45.0408 34.8591C45.5516 33.8854 46.2699 33.1352 47.1957 32.6084C48.1375 32.0657 49.2309 31.7943 50.476 31.7943C51.354 31.7943 52.0962 31.962 52.7028 32.2972C53.3253 32.6164 53.7882 33.0474 54.0915 33.5901C54.3948 34.1169 54.5465 34.6915 54.5465 35.3141C54.5465 35.9845 54.3629 36.631 53.9958 37.2535C53.6446 37.8761 53.1258 38.3869 52.4394 38.7859C51.753 39.169 50.931 39.3606 49.9732 39.3606C49.4624 39.3606 48.8957 39.2648 48.2732 39.0732C47.6507 38.8817 47.3394 38.6024 47.3394 38.2352C47.3394 38.1075 47.3713 37.9878 47.4352 37.8761C47.515 37.7643 47.6028 37.7085 47.6985 37.7085C47.7464 37.7085 47.9061 37.7643 48.1774 37.8761C48.4488 37.9718 48.8 38.0197 49.2309 38.0197C50.1887 38.0197 50.931 37.7484 51.4577 37.2056C52.0004 36.6629 52.2718 36.0244 52.2718 35.2901C52.2718 34.6676 52.0723 34.1329 51.6732 33.6859C51.2741 33.223 50.7155 32.9915 49.9971 32.9915C48.9755 32.9915 48.1774 33.4465 47.6028 34.3563C47.0281 35.2502 46.7408 36.5352 46.7408 38.2113C46.7408 39.6319 47.0441 40.7493 47.6507 41.5634C48.2572 42.3615 49.1352 42.7606 50.2845 42.7606C51.6892 42.7606 52.8544 42.3057 53.7803 41.3958C53.8441 41.3319 53.9159 41.3 53.9958 41.3C54.1235 41.3 54.2591 41.3798 54.4028 41.5395C54.5465 41.6831 54.6183 41.8348 54.6183 41.9944C54.6183 42.0742 54.5864 42.146 54.5225 42.2099ZM61.3775 35.362C61.6489 34.2925 62.0639 33.4305 62.6226 32.776C63.1973 32.1216 63.8198 31.7943 64.4902 31.7943C65.1606 31.7943 65.7113 32.0178 66.1423 32.4648C66.5893 32.8958 66.8128 33.4864 66.8128 34.2366C66.8128 34.8432 66.5893 35.354 66.1423 35.769C65.6954 36.184 65.1367 36.3915 64.4663 36.3915C64.163 36.3915 64.0113 36.3038 64.0113 36.1282C64.0113 36.0803 64.0752 35.9606 64.2029 35.769C64.3466 35.5775 64.4583 35.3779 64.5381 35.1704C64.6339 34.9629 64.6818 34.7314 64.6818 34.476C64.6818 34.1887 64.602 33.9652 64.4423 33.8056C64.2987 33.63 64.1151 33.5422 63.8916 33.5422C63.5085 33.5422 63.1095 33.7737 62.6944 34.2366C62.2954 34.6836 61.9522 35.4178 61.6649 36.4394C61.3775 37.4451 61.2339 38.7221 61.2339 40.2704C61.2339 40.9887 61.2897 41.5714 61.4015 42.0183C61.5132 42.4493 61.7127 42.8643 62.0001 43.2634L62.2874 43.6465L62.0001 44.0057H57.8099L57.5465 43.2634L58.0494 43.1437C58.4484 43.0479 58.7118 42.8803 58.8395 42.6409C58.9832 42.3855 59.055 41.9545 59.055 41.3479V34.6197C59.055 34.4282 59.0151 34.2925 58.9353 34.2127C58.8714 34.1329 58.7517 34.0929 58.5761 34.0929H57.5226L57.3071 33.4704C57.77 33.0554 58.2968 32.7122 58.8874 32.4408C59.494 32.1695 60.0207 32.0338 60.4677 32.0338C60.6911 32.0338 60.8747 32.1056 61.0184 32.2493C61.162 32.3929 61.2339 32.5765 61.2339 32.8V35.362H61.3775ZM75.6845 50.662C74.8066 50.662 74.0563 50.4944 73.4338 50.1592C72.8112 49.84 72.3483 49.417 72.045 48.8902C71.7418 48.3794 71.5901 47.8287 71.5901 47.2381C71.5901 46.4399 71.8615 45.7536 72.4042 45.1789C72.9469 44.6202 73.6892 44.3409 74.631 44.3409C74.7906 44.3409 74.9023 44.3648 74.9662 44.4127C75.046 44.4766 75.0859 44.5404 75.0859 44.6043C75.0859 44.6681 74.9742 44.8197 74.7507 45.0592C74.5272 45.2986 74.3277 45.5859 74.1521 45.9212C73.9925 46.2564 73.9127 46.6794 73.9127 47.1902C73.9127 47.8287 74.0962 48.3554 74.4634 48.7705C74.8465 49.2015 75.3573 49.4169 75.9958 49.4169C76.9854 49.4169 77.7117 49.0099 78.1746 48.1958C78.6376 47.3817 78.869 46.2883 78.869 44.9155V41.3718C78.5019 42.0742 77.9512 42.6329 77.2169 43.0479C76.4826 43.447 75.6765 43.6465 74.7986 43.6465C73.6652 43.6465 72.7793 43.3033 72.1408 42.6169C71.5023 41.9146 71.1831 40.9329 71.1831 39.6718V34.3563C71.1831 34.1648 71.1432 34.0291 71.0633 33.9493C70.9995 33.8695 70.8798 33.8296 70.7042 33.8296H69.6507L69.4352 33.207C69.8502 32.792 70.353 32.4488 70.9436 32.1774C71.5502 31.9061 72.1009 31.7704 72.5957 31.7704C72.8192 31.7704 73.0028 31.8422 73.1465 31.9859C73.2901 32.1296 73.3619 32.3131 73.3619 32.5366V39.1211C73.3619 40.0789 73.5535 40.8052 73.9366 41.3C74.3197 41.7949 74.8784 42.0423 75.6127 42.0423C76.6821 42.0423 77.5122 41.6432 78.1028 40.8451C78.7094 40.031 79.0127 38.9136 79.0127 37.493C79.0127 36.184 78.9568 35.2103 78.8451 34.5718C78.7333 33.9333 78.4779 33.3507 78.0789 32.8239L77.7915 32.4408L78.0789 32.0817L81 31.7704V44.5324C81 46.4958 80.5211 48.0043 79.5634 49.0578C78.6216 50.1273 77.3286 50.662 75.6845 50.662Z" fill="#704A24"/>
<path d="M13.786 7.252C13.786 8.1459 13.5705 8.952 13.1395 9.67032C12.7245 10.3886 12.1019 10.9473 11.2719 11.3464C12.3414 11.6976 13.1714 12.2323 13.762 12.9506C14.3686 13.6689 14.6719 14.467 14.6719 15.345C14.6719 16.7976 14.177 17.9469 13.1874 18.7929C12.1977 19.6389 10.6174 20.0619 8.44651 20.0619H1.7662L1.47888 19.2478L2.02958 19.1042C2.63616 18.9286 3.0432 18.6971 3.25071 18.4098C3.45823 18.1225 3.56198 17.6117 3.56198 16.8774V5.04917C3.56198 4.84166 3.52207 4.698 3.44226 4.61819C3.36245 4.52241 3.22677 4.47452 3.03522 4.47452H1.64648L1.35916 3.5886C2.04554 3.31724 2.94743 3.0778 4.0648 2.87029C5.18218 2.64682 6.25964 2.53508 7.29721 2.53508C9.48407 2.53508 11.1122 2.97405 12.1817 3.85199C13.2512 4.72992 13.786 5.86326 13.786 7.252ZM5.93241 15.6802C5.93241 16.9891 6.19579 17.8431 6.72256 18.2422C7.24932 18.6253 7.87186 18.8168 8.59017 18.8168C9.70754 18.8168 10.5855 18.4896 11.224 17.8351C11.8625 17.1647 12.1817 16.2948 12.1817 15.2253C12.1817 14.6187 12.0221 14.068 11.7029 13.5731C11.3996 13.0624 10.9606 12.6553 10.386 12.352C9.8113 12.0487 9.14087 11.8971 8.37468 11.8971C8.10331 11.8971 7.81599 11.8652 7.5127 11.8013C7.22538 11.7375 6.99392 11.6656 6.81833 11.5858C6.57889 11.4741 6.45918 11.2985 6.45918 11.0591C6.45918 10.7717 6.57091 10.6281 6.79439 10.6281C6.85824 10.6281 6.98594 10.66 7.17749 10.7238C7.385 10.7717 7.65636 10.7957 7.99158 10.7957C9.07703 10.7957 9.91506 10.4764 10.5057 9.83792C11.1122 9.19942 11.4155 8.35341 11.4155 7.29989C11.4155 6.29425 11.0723 5.47218 10.386 4.83368C9.71553 4.19518 8.76576 3.87593 7.53664 3.87593C6.46716 3.87593 5.93241 4.24307 5.93241 4.97734V15.6802ZM20.5469 11.4182C20.8183 10.3487 21.2333 9.48675 21.792 8.83229C22.3666 8.17782 22.9892 7.85059 23.6596 7.85059C24.33 7.85059 24.8807 8.07407 25.3117 8.52102C25.7586 8.95201 25.9821 9.54262 25.9821 10.2929C25.9821 10.8994 25.7586 11.4102 25.3117 11.8253C24.8647 12.2403 24.3061 12.4478 23.6356 12.4478C23.3323 12.4478 23.1807 12.36 23.1807 12.1844C23.1807 12.1365 23.2446 12.0168 23.3723 11.8253C23.5159 11.6337 23.6277 11.4342 23.7075 11.2267C23.8032 11.0191 23.8511 10.7877 23.8511 10.5323C23.8511 10.245 23.7713 10.0215 23.6117 9.86187C23.468 9.68628 23.2845 9.59849 23.061 9.59849C22.6779 9.59849 22.2788 9.82994 21.8638 10.2929C21.4647 10.7398 21.1215 11.4741 20.8342 12.4957C20.5469 13.5013 20.4032 14.7783 20.4032 16.3267C20.4032 17.045 20.4591 17.6276 20.5708 18.0746C20.6826 18.5056 20.8821 18.9206 21.1694 19.3197L21.4568 19.7028L21.1694 20.0619H16.9793L16.7159 19.3197L17.2187 19.1999C17.6178 19.1042 17.8812 18.9366 18.0089 18.6971C18.1525 18.4417 18.2243 18.0107 18.2243 17.4042V10.676C18.2243 10.4844 18.1844 10.3487 18.1046 10.2689C18.0408 10.1891 17.9211 10.1492 17.7455 10.1492H16.6919L16.4765 9.52666C16.9394 9.11163 17.4661 8.76844 18.0567 8.49707C18.6633 8.22571 19.1901 8.09003 19.637 8.09003C19.8605 8.09003 20.0441 8.16186 20.1877 8.30552C20.3314 8.44919 20.4032 8.63275 20.4032 8.85623V11.4182H20.5469ZM38.4933 18.2661C37.9027 18.9525 37.2003 19.4793 36.3862 19.8464C35.5722 20.2136 34.6942 20.3971 33.7524 20.3971C32.651 20.3971 31.6853 20.1417 30.8552 19.6309C30.0252 19.1201 29.3787 18.4018 28.9158 17.476C28.4688 16.5502 28.2454 15.4807 28.2454 14.2675C28.2454 12.9905 28.5008 11.8731 29.0116 10.9154C29.5224 9.94168 30.2407 9.19144 31.1665 8.66468C32.1083 8.12195 33.2017 7.85059 34.4468 7.85059C35.3247 7.85059 36.067 8.0182 36.6736 8.35341C37.2961 8.67266 37.759 9.10365 38.0623 9.64637C38.3656 10.1731 38.5172 10.7478 38.5172 11.3703C38.5172 12.0407 38.3337 12.6872 37.9665 13.3098C37.6154 13.9323 37.0966 14.4431 36.4102 14.8422C35.7238 15.2253 34.9017 15.4168 33.944 15.4168C33.4332 15.4168 32.8665 15.321 32.244 15.1295C31.6214 14.9379 31.3102 14.6586 31.3102 14.2915C31.3102 14.1638 31.3421 14.044 31.4059 13.9323C31.4858 13.8206 31.5736 13.7647 31.6693 13.7647C31.7172 13.7647 31.8768 13.8206 32.1482 13.9323C32.4196 14.0281 32.7707 14.076 33.2017 14.076C34.1595 14.076 34.9017 13.8046 35.4285 13.2619C35.9712 12.7192 36.2426 12.0807 36.2426 11.3464C36.2426 10.7238 36.0431 10.1891 35.644 9.74215C35.2449 9.27924 34.6862 9.04778 33.9679 9.04778C32.9463 9.04778 32.1482 9.50271 31.5736 10.4126C30.9989 11.3065 30.7116 12.5915 30.7116 14.2675C30.7116 15.6882 31.0149 16.8056 31.6214 17.6196C32.228 18.4178 33.106 18.8168 34.2553 18.8168C35.66 18.8168 36.8252 18.3619 37.751 17.452C37.8149 17.3882 37.8867 17.3563 37.9665 17.3563C38.0942 17.3563 38.2299 17.4361 38.3736 17.5957C38.5172 17.7394 38.5891 17.891 38.5891 18.0506C38.5891 18.1304 38.5571 18.2023 38.4933 18.2661ZM51.8131 17.9549C51.8131 18.4497 52.0526 18.6971 52.5314 18.6971C52.9305 18.6971 53.3296 18.5535 53.7286 18.2661L54.1836 18.8887C53.7685 19.3516 53.3216 19.7187 52.8427 19.9901C52.3638 20.2614 51.9249 20.3971 51.5258 20.3971C50.8713 20.3971 50.4004 20.1976 50.1131 19.7985C49.8258 19.3995 49.6821 18.753 49.6821 17.8591C49.0277 18.7849 48.3572 19.4394 47.6709 19.8225C46.9845 20.2056 46.2422 20.3971 45.4441 20.3971C44.6779 20.3971 43.9676 20.1816 43.3131 19.7506C42.6586 19.3037 42.1319 18.6412 41.7328 17.7633C41.3497 16.8854 41.1582 15.8239 41.1582 14.5788C41.1582 13.206 41.4056 12.0168 41.9004 11.0112C42.4112 9.98957 43.1295 9.20741 44.0554 8.66468C44.9971 8.12195 46.0986 7.85059 47.3596 7.85059C48.1896 7.85059 48.9479 7.95435 49.6342 8.16186V3.92382C49.6342 3.73227 49.5943 3.59659 49.5145 3.51677C49.4507 3.43696 49.331 3.39705 49.1554 3.39705H48.1018L47.8864 2.77452C48.3493 2.35949 48.876 2.0163 49.4666 1.74493C50.0732 1.47357 50.6 1.33789 51.0469 1.33789C51.2704 1.33789 51.454 1.40972 51.5976 1.55338C51.7413 1.69705 51.8131 1.88062 51.8131 2.10409V17.9549ZM43.6723 14.1239C43.6723 15.6403 43.9277 16.7577 44.4385 17.476C44.9652 18.1943 45.6197 18.5534 46.4018 18.5534C47.0403 18.5534 47.6389 18.3779 48.1976 18.0267C48.7563 17.6596 49.2511 17.1088 49.6821 16.3746V9.90976C48.9479 9.41492 48.1657 9.1675 47.3356 9.1675C46.1704 9.1675 45.2685 9.60647 44.63 10.4844C43.9915 11.3464 43.6723 12.5595 43.6723 14.1239ZM56.4945 4.30692C56.4945 4.00363 56.6621 3.66842 56.9973 3.30128C57.3485 2.91818 57.6678 2.72663 57.9551 2.72663C58.2584 2.72663 58.5856 2.9102 58.9368 3.27734C59.2879 3.64447 59.4635 3.98767 59.4635 4.30692C59.4635 4.6102 59.2879 4.94542 58.9368 5.31255C58.5856 5.67969 58.2584 5.86326 57.9551 5.86326C57.6837 5.86326 57.3724 5.67969 57.0213 5.31255C56.6701 4.94542 56.4945 4.6102 56.4945 4.30692ZM59.0565 17.4042C59.0565 18.5968 60.2608 18.2661 60.2608 18.2661V20.0619C60.2608 20.0619 60.2608 20.3971 58.7213 20.3971C58.0668 20.3971 57.5959 20.1976 57.3086 19.7985C57.0213 19.3995 56.8776 18.753 56.8776 17.8591V10.4365C56.8776 10.245 56.8377 10.1093 56.7579 10.0295C56.694 9.94966 56.5743 9.90976 56.3987 9.90976H55.3452L55.1297 9.28722C55.5926 8.87219 56.1194 8.529 56.71 8.25764C57.3006 7.98627 57.8274 7.85059 58.2903 7.85059C58.5138 7.85059 58.6973 7.92242 58.841 8.06609C58.9847 8.20975 59.0565 8.39332 59.0565 8.61679V17.4042ZM66.8747 16.2309C66.8747 16.9811 66.9305 17.5797 67.0423 18.0267C67.154 18.4736 67.3536 18.9046 67.6409 19.3197L67.9282 19.7028L67.6409 20.0619H63.4507L63.1873 19.3197L63.6902 19.1999C64.0892 19.1042 64.3526 18.9366 64.4803 18.6971C64.624 18.4417 64.6958 18.0107 64.6958 17.4042V10.676C64.6958 10.4844 64.6559 10.3487 64.5761 10.2689C64.5122 10.1891 64.3925 10.1492 64.2169 10.1492H63.1634L62.9479 9.52666C63.4108 9.11163 63.9376 8.76844 64.5282 8.49707C65.1348 8.22571 65.6615 8.09003 66.1085 8.09003C66.332 8.09003 66.5155 8.16186 66.6592 8.30552C66.8029 8.44919 66.8747 8.63275 66.8747 8.85623V11.4182C67.2897 10.3806 67.9122 9.52666 68.7423 8.85623C69.5723 8.1858 70.4423 7.85059 71.3522 7.85059C72.4695 7.85059 73.2836 8.19379 73.7944 8.88017C74.3052 9.56656 74.5606 10.66 74.5606 12.1605V17.9549C74.5606 18.4976 74.8001 18.7689 75.2789 18.7689C75.6461 18.7689 76.0451 18.6013 76.4761 18.2661L76.9311 18.8887C76.516 19.3516 76.0691 19.7187 75.5902 19.9901C75.1113 20.2614 74.6644 20.3971 74.2494 20.3971C73.5949 20.3971 73.124 20.1976 72.8367 19.7985C72.5494 19.3995 72.4057 18.753 72.4057 17.8591V12.1605C72.4057 10.5323 71.7193 9.71821 70.3465 9.71821C69.6601 9.71821 69.0536 9.98957 68.5268 10.5323C68.016 11.075 67.609 11.8412 67.3057 12.8309C67.0183 13.8206 66.8747 14.9539 66.8747 16.2309Z" stroke="#704A24" stroke-width="1.4" stroke-linejoin="round" mask="url(#path-1-outside-1_3302_8702)"/>
<path d="M7.60848 33.1352C7.17749 33.1352 6.82631 33.1911 6.55495 33.3028C6.28359 33.3986 6.12396 33.4465 6.07608 33.4465C5.9803 33.4465 5.89251 33.3906 5.81269 33.2789C5.74884 33.1671 5.71692 33.0474 5.71692 32.9197C5.71692 32.7282 5.78875 32.5845 5.93241 32.4887C6.66669 32.0258 7.47279 31.7943 8.35073 31.7943C9.34041 31.7943 10.2183 32.0418 10.9845 32.5366C11.7667 33.0314 12.3733 33.7178 12.8043 34.5958C13.2353 35.4737 13.4508 36.4714 13.4508 37.5887C13.4508 38.8657 13.1794 40.023 12.6367 41.0606C12.0939 42.0822 11.3517 42.8883 10.4099 43.4789C9.46811 44.0535 8.4066 44.3409 7.22538 44.3409C6.29955 44.3409 5.43758 44.2052 4.63945 43.9338C3.84133 43.6625 3.21081 43.2953 2.74789 42.8324V27.8676C2.74789 27.676 2.70799 27.5403 2.62818 27.4605C2.56433 27.3807 2.44461 27.3408 2.26902 27.3408H1.21549L1 26.7183C1.46291 26.3032 1.98968 25.9601 2.58029 25.6887C3.1709 25.4173 3.69766 25.2816 4.16058 25.2816C4.38405 25.2816 4.56762 25.3535 4.71128 25.4971C4.85494 25.6408 4.92678 25.8244 4.92678 26.0478V42.2338C5.30988 42.5052 5.69298 42.7047 6.07608 42.8324C6.47514 42.9442 6.93007 43 7.44087 43C8.51036 43 9.35637 42.5611 9.97891 41.6831C10.6014 40.7892 10.9127 39.584 10.9127 38.0676C10.9127 37.1099 10.7691 36.2559 10.4817 35.5056C10.2104 34.7554 9.82726 34.1728 9.33243 33.7577C8.83759 33.3427 8.26294 33.1352 7.60848 33.1352ZM24.8442 41.8028C24.1898 42.7287 23.5193 43.3831 22.833 43.7662C22.1466 44.1493 21.4043 44.3409 20.6062 44.3409C19.84 44.3409 19.1297 44.1254 18.4752 43.6944C17.8207 43.2474 17.294 42.585 16.8949 41.7071C16.5118 40.8291 16.3203 39.7676 16.3203 38.5225C16.3203 37.1498 16.5677 35.9606 17.0625 34.9549C17.5733 33.9333 18.2916 33.1512 19.2175 32.6084C20.1592 32.0657 21.2607 31.7943 22.5217 31.7943C23.1442 31.7943 24.0222 31.8981 25.1555 32.1056C26.1133 32.2652 26.8316 32.361 27.3104 32.3929L27.5738 32.7042L27.2865 33.1352C27.1748 33.2948 27.0949 33.4465 27.0471 33.5901C26.9992 33.7178 26.9752 33.8775 26.9752 34.069V41.8986C26.9752 42.987 27.4058 43.1907 27.9367 42.8085V44.0057C27.9367 44.3409 27.2133 44.3409 26.6879 44.3409C26.0334 44.3409 25.5625 44.1413 25.2752 43.7423C24.9879 43.3432 24.8442 42.6967 24.8442 41.8028ZM18.8344 38.0676C18.8344 39.584 19.0898 40.7014 19.6006 41.4197C20.1273 42.138 20.7818 42.4972 21.5639 42.4972C22.2024 42.4972 22.801 42.3216 23.3597 41.9704C23.9184 41.6033 24.4132 41.0526 24.8442 40.3183V33.8535C24.11 33.3587 23.3278 33.1113 22.4977 33.1113C21.3325 33.1113 20.4306 33.5502 19.7921 34.4282C19.1536 35.2901 18.8344 36.5033 18.8344 38.0676ZM34.7932 38.3549C34.4899 38.2751 34.3383 38.1075 34.3383 37.8521C34.3383 37.7244 34.3622 37.6207 34.4101 37.5408C34.474 37.4451 34.5698 37.3972 34.6975 37.3972C34.7453 37.3972 34.905 37.4371 35.1763 37.5169C35.4477 37.5808 35.7989 37.6127 36.2299 37.6127C36.8205 37.6127 37.3233 37.493 37.7383 37.2535C38.1533 37.0141 38.4646 36.7028 38.6721 36.3197C38.8796 35.9366 38.9834 35.5455 38.9834 35.1465C38.9834 34.6676 38.8397 34.2685 38.5524 33.9493C38.281 33.6141 37.89 33.4465 37.3792 33.4465C36.597 33.4465 35.9106 33.7258 35.32 34.2845C34.7294 34.8432 34.2745 35.6333 33.9552 36.6549C33.6519 37.6765 33.5003 38.8498 33.5003 40.1747C33.5003 40.9409 33.5561 41.5554 33.6679 42.0183C33.7796 42.4653 33.9791 42.8803 34.2665 43.2634L34.5538 43.6465L34.2665 44.0057C34.2665 44.0057 31.7831 44.0057 30.9297 44.0057C30.5542 42.9476 31.3214 42.5089 31.3214 41.3479V27.8676C31.3214 27.676 31.2815 27.5403 31.2017 27.4605C31.1378 27.3807 31.0181 27.3408 30.8425 27.3408H29.789L29.5735 26.7183C30.0364 26.3032 30.5632 25.9601 31.1538 25.6887C31.7604 25.4173 32.2871 25.2816 32.7341 25.2816C32.9575 25.2816 33.1411 25.3535 33.2848 25.4971C33.4284 25.6408 33.5003 25.8244 33.5003 26.0478V35.362C33.8993 34.3084 34.4979 33.4544 35.2961 32.8C36.1101 32.1296 36.9562 31.7943 37.8341 31.7943C38.8876 31.7943 39.7017 32.0976 40.2764 32.7042C40.851 33.3108 41.1383 34.053 41.1383 34.931C41.1383 35.4897 40.9947 36.0404 40.7073 36.5831C40.436 37.1099 40.0289 37.5648 39.4862 37.9479C38.9594 38.315 38.3289 38.5385 37.5947 38.6183L39.4623 42.162C39.59 42.4174 39.7336 42.593 39.8933 42.6888C40.0529 42.7845 40.2444 42.8324 40.4679 42.8324C40.6754 42.8324 40.8909 42.7765 41.1144 42.6648C41.3379 42.5531 41.5454 42.4014 41.7369 42.2099L42.2397 42.8324C41.5055 43.8381 40.6515 44.3409 39.6778 44.3409C39.1989 44.3409 38.7918 44.2451 38.4566 44.0535C38.1374 43.862 37.858 43.5986 37.6186 43.2634C37.3951 42.9282 37.1158 42.4413 36.7806 41.8028L35.0087 38.4268L34.7932 38.3549ZM54.5225 42.2099C53.9319 42.8963 53.2296 43.423 52.4155 43.7902C51.6014 44.1573 50.7234 44.3409 49.7817 44.3409C48.6802 44.3409 47.7145 44.0855 46.8845 43.5747C46.0544 43.0639 45.4079 42.3456 44.945 41.4197C44.4981 40.4939 44.2746 39.4244 44.2746 38.2113C44.2746 36.9343 44.53 35.8169 45.0408 34.8591C45.5516 33.8854 46.2699 33.1352 47.1957 32.6084C48.1375 32.0657 49.2309 31.7943 50.476 31.7943C51.354 31.7943 52.0962 31.962 52.7028 32.2972C53.3253 32.6164 53.7882 33.0474 54.0915 33.5901C54.3948 34.1169 54.5465 34.6915 54.5465 35.3141C54.5465 35.9845 54.3629 36.631 53.9958 37.2535C53.6446 37.8761 53.1258 38.3869 52.4394 38.7859C51.753 39.169 50.931 39.3606 49.9732 39.3606C49.4624 39.3606 48.8957 39.2648 48.2732 39.0732C47.6507 38.8817 47.3394 38.6024 47.3394 38.2352C47.3394 38.1075 47.3713 37.9878 47.4352 37.8761C47.515 37.7643 47.6028 37.7085 47.6985 37.7085C47.7464 37.7085 47.9061 37.7643 48.1774 37.8761C48.4488 37.9718 48.8 38.0197 49.2309 38.0197C50.1887 38.0197 50.931 37.7484 51.4577 37.2056C52.0004 36.6629 52.2718 36.0244 52.2718 35.2901C52.2718 34.6676 52.0723 34.1329 51.6732 33.6859C51.2741 33.223 50.7155 32.9915 49.9971 32.9915C48.9755 32.9915 48.1774 33.4465 47.6028 34.3563C47.0281 35.2502 46.7408 36.5352 46.7408 38.2113C46.7408 39.6319 47.0441 40.7493 47.6507 41.5634C48.2572 42.3615 49.1352 42.7606 50.2845 42.7606C51.6892 42.7606 52.8544 42.3057 53.7803 41.3958C53.8441 41.3319 53.9159 41.3 53.9958 41.3C54.1235 41.3 54.2591 41.3798 54.4028 41.5395C54.5465 41.6831 54.6183 41.8348 54.6183 41.9944C54.6183 42.0742 54.5864 42.146 54.5225 42.2099ZM61.3775 35.362C61.6489 34.2925 62.0639 33.4305 62.6226 32.776C63.1973 32.1216 63.8198 31.7943 64.4902 31.7943C65.1606 31.7943 65.7113 32.0178 66.1423 32.4648C66.5893 32.8958 66.8128 33.4864 66.8128 34.2366C66.8128 34.8432 66.5893 35.354 66.1423 35.769C65.6954 36.184 65.1367 36.3915 64.4663 36.3915C64.163 36.3915 64.0113 36.3038 64.0113 36.1282C64.0113 36.0803 64.0752 35.9606 64.2029 35.769C64.3466 35.5775 64.4583 35.3779 64.5381 35.1704C64.6339 34.9629 64.6818 34.7314 64.6818 34.476C64.6818 34.1887 64.602 33.9652 64.4423 33.8056C64.2987 33.63 64.1151 33.5422 63.8916 33.5422C63.5085 33.5422 63.1095 33.7737 62.6944 34.2366C62.2954 34.6836 61.9522 35.4178 61.6649 36.4394C61.3775 37.4451 61.2339 38.7221 61.2339 40.2704C61.2339 40.9887 61.2897 41.5714 61.4015 42.0183C61.5132 42.4493 61.7127 42.8643 62.0001 43.2634L62.2874 43.6465L62.0001 44.0057H57.8099L57.5465 43.2634L58.0494 43.1437C58.4484 43.0479 58.7118 42.8803 58.8395 42.6409C58.9832 42.3855 59.055 41.9545 59.055 41.3479V34.6197C59.055 34.4282 59.0151 34.2925 58.9353 34.2127C58.8714 34.1329 58.7517 34.0929 58.5761 34.0929H57.5226L57.3071 33.4704C57.77 33.0554 58.2968 32.7122 58.8874 32.4408C59.494 32.1695 60.0207 32.0338 60.4677 32.0338C60.6911 32.0338 60.8747 32.1056 61.0184 32.2493C61.162 32.3929 61.2339 32.5765 61.2339 32.8V35.362H61.3775ZM75.6845 50.662C74.8066 50.662 74.0563 50.4944 73.4338 50.1592C72.8112 49.84 72.3483 49.417 72.045 48.8902C71.7418 48.3794 71.5901 47.8287 71.5901 47.2381C71.5901 46.4399 71.8615 45.7536 72.4042 45.1789C72.9469 44.6202 73.6892 44.3409 74.631 44.3409C74.7906 44.3409 74.9023 44.3648 74.9662 44.4127C75.046 44.4766 75.0859 44.5404 75.0859 44.6043C75.0859 44.6681 74.9742 44.8197 74.7507 45.0592C74.5272 45.2986 74.3277 45.5859 74.1521 45.9212C73.9925 46.2564 73.9127 46.6794 73.9127 47.1902C73.9127 47.8287 74.0962 48.3554 74.4634 48.7705C74.8465 49.2015 75.3573 49.4169 75.9958 49.4169C76.9854 49.4169 77.7117 49.0099 78.1746 48.1958C78.6376 47.3817 78.869 46.2883 78.869 44.9155V41.3718C78.5019 42.0742 77.9512 42.6329 77.2169 43.0479C76.4826 43.447 75.6765 43.6465 74.7986 43.6465C73.6652 43.6465 72.7793 43.3033 72.1408 42.6169C71.5023 41.9146 71.1831 40.9329 71.1831 39.6718V34.3563C71.1831 34.1648 71.1432 34.0291 71.0633 33.9493C70.9995 33.8695 70.8798 33.8296 70.7042 33.8296H69.6507L69.4352 33.207C69.8502 32.792 70.353 32.4488 70.9436 32.1774C71.5502 31.9061 72.1009 31.7704 72.5957 31.7704C72.8192 31.7704 73.0028 31.8422 73.1465 31.9859C73.2901 32.1296 73.3619 32.3131 73.3619 32.5366V39.1211C73.3619 40.0789 73.5535 40.8052 73.9366 41.3C74.3197 41.7949 74.8784 42.0423 75.6127 42.0423C76.6821 42.0423 77.5122 41.6432 78.1028 40.8451C78.7094 40.031 79.0127 38.9136 79.0127 37.493C79.0127 36.184 78.9568 35.2103 78.8451 34.5718C78.7333 33.9333 78.4779 33.3507 78.0789 32.8239L77.7915 32.4408L78.0789 32.0817L81 31.7704V44.5324C81 46.4958 80.5211 48.0043 79.5634 49.0578C78.6216 50.1273 77.3286 50.662 75.6845 50.662Z" stroke="#704A24" stroke-width="1.4" stroke-linejoin="round" mask="url(#path-1-outside-1_3302_8702)"/>
</svg>
